<svg aria-hidden="true" style="position: absolute; width: 0; height: 0; overflow: hidden;" version="1.1" xmlns="http://www.w3.org/2000/svg" xmlns:xlink="http://www.w3.org/1999/xlink">
<defs>
<symbol id="chat" viewBox="0 0 47 32">
<path d="M35.987 13.842c0-8.361-8.814-13.842-17.614-13.842-8.835 0-17.614 5.506-17.614 13.842 0 3.154 1.381 6.237 3.889 8.684 0.096 0.094 0.133 0.236 0.096 0.371-0.788 2.886-2.654 5.493-3.419 6.48-0.131 0.166-0.211 0.379-0.211 0.61 0 0.164 0.040 0.319 0.111 0.456l-0.003-0.005c0.165 0.327 0.499 0.547 0.883 0.547 0.002 0 0.003 0 0.005 0h-0l0.026-0c3.746-0.093 8.089-1.151 10.773-3.79 0.069-0.067 0.163-0.109 0.267-0.109 0.033 0 0.065 0.004 0.095 0.012l-0.003-0.001c1.649 0.391 3.366 0.589 5.103 0.589 8.832-0 17.614-5.504 17.614-13.842zM13.58 25.79c-0.583-0.138-1.185 0.028-1.61 0.446-2.684 2.639-7.067 3.239-9.142 3.372 0.948-1.308 2.489-3.711 3.211-6.359 0.165-0.605-0.009-1.25-0.453-1.684-2.279-2.223-3.484-4.894-3.484-7.723 0-6.893 7.3-12.501 16.272-12.501s16.272 5.608 16.272 12.501c0 6.893-7.3 12.501-16.272 12.501-1.633 0-3.245-0.186-4.793-0.553z"></path>
<path d="M40.3 24.986c3.91-1.976 6.245-5.344 6.245-9.010 0-5.181-4.683-9.607-11.135-10.526-0.028-0.004-0.061-0.007-0.095-0.007-0.37 0-0.671 0.3-0.671 0.671 0 0.337 0.249 0.616 0.572 0.664l0.004 0c5.784 0.823 9.983 4.692 9.983 9.198 0 3.149-2.059 6.070-5.509 7.813-0.544 0.279-0.91 0.837-0.91 1.479 0 0.122 0.013 0.24 0.038 0.354l-0.002-0.011c0.327 1.537 1.023 2.96 1.58 3.924-3.961-0.659-5.462-2.56-5.937-3.382-0.293-0.508-0.841-0.823-1.432-0.823h-0.005l-0.049 0c-0.744 0-1.488-0.052-2.213-0.153-0.028-0.004-0.060-0.006-0.093-0.006-0.338 0-0.617 0.249-0.664 0.574l-0 0.004c-0.004 0.028-0.007 0.060-0.007 0.093 0 0.338 0.249 0.617 0.574 0.664l0.004 0c0.72 0.106 1.55 0.166 2.395 0.166 0.002 0 0.003 0 0.005 0h-0l0.056-0c0.001 0 0.002 0 0.003 0 0.113 0 0.211 0.060 0.266 0.15l0.001 0.001c1.816 3.148 5.992 3.952 7.703 4.151 0.035 0.005 0.076 0.007 0.117 0.007 0.346 0 0.649-0.182 0.82-0.455l0.002-0.004c0.094-0.146 0.149-0.324 0.149-0.515 0-0.195-0.058-0.377-0.158-0.529l0.002 0.004c-0.515-0.803-1.435-2.409-1.806-4.15-0.004-0.019-0.007-0.042-0.007-0.064 0-0.123 0.070-0.229 0.172-0.281l0.002-0.001zM7.937 11.443c-1.282 0-2.324 1.043-2.324 2.324s1.043 2.325 2.324 2.325 2.324-1.043 2.324-2.324c0-1.282-1.043-2.325-2.324-2.325zM7.937 14.751c-0.543-0.001-0.982-0.44-0.983-0.983v-0c0.001-0.543 0.44-0.982 0.983-0.983h0c0.543 0.001 0.982 0.44 0.983 0.983v0c-0.001 0.543-0.44 0.982-0.983 0.983h-0zM14.568 11.443c-1.282 0-2.324 1.043-2.324 2.324s1.043 2.325 2.324 2.325 2.324-1.043 2.324-2.324c0-1.282-1.043-2.325-2.325-2.325zM14.568 14.751c-0.543-0.001-0.982-0.44-0.983-0.983v-0c0.001-0.543 0.44-0.982 0.983-0.983h0c0.543 0.001 0.982 0.44 0.983 0.983v0c-0.001 0.543-0.44 0.982-0.983 0.983h-0zM21.199 11.443c-1.282 0-2.324 1.043-2.324 2.324s1.043 2.325 2.324 2.325 2.325-1.043 2.325-2.324c0-1.282-1.043-2.325-2.325-2.325zM21.199 14.751c-0.543-0.001-0.982-0.44-0.983-0.983v-0c0.001-0.543 0.44-0.982 0.983-0.983h0c0.543 0.001 0.982 0.44 0.983 0.983v0c-0.001 0.543-0.44 0.982-0.983 0.983h-0zM27.83 11.443c-1.282 0-2.325 1.043-2.325 2.324s1.043 2.325 2.325 2.325 2.324-1.043 2.324-2.324c0-1.282-1.043-2.325-2.324-2.325zM27.83 14.751c-0.543-0.001-0.982-0.44-0.983-0.983v-0c0.001-0.543 0.44-0.982 0.983-0.983h0c0.543 0.001 0.982 0.44 0.983 0.983v0c0 0.542-0.441 0.983-0.983 0.983z"></path>
</symbol>
<symbol id="chef-hat" viewBox="0 0 35 32">
<path d="M25.046 8.506c0 0 0 0 0 0-0.27 0-0.489-0.218-0.49-0.488v-0c-0.079-3.896-3.256-7.024-7.164-7.024s-7.085 3.128-7.164 7.017l-0 0.007c0 0.27-0.219 0.49-0.49 0.49s-0.49-0.219-0.49-0.49v0c0.060-4.451 3.683-8.037 8.143-8.037s8.083 3.585 8.143 8.031l0 0.006c-0.001 0.269-0.219 0.488-0.488 0.488h-0z"></path>
<path d="M26.474 19.581c-0.26-0.013-0.467-0.227-0.467-0.489 0-0.26 0.203-0.473 0.46-0.489l0.001-0c3.88-0.023 7.022-3.148 7.073-7.018l0-0.005c-0.039-3.895-3.206-7.037-7.106-7.037-0.019 0-0.037 0-0.056 0l0.003-0c-0.723 0-1.441 0.106-2.133 0.316-0.035 0.009-0.075 0.014-0.117 0.014-0.27 0-0.49-0.219-0.49-0.49 0-0.209 0.132-0.388 0.317-0.458l0.003-0.001c0.72-0.228 1.548-0.359 2.407-0.359 0.004 0 0.009 0 0.013 0h-0.001c0.015-0 0.034-0 0.052-0 4.441 0 8.046 3.58 8.086 8.012l0 0.004c-0.054 4.41-3.625 7.969-8.036 8.001l-0.003 0h-0.007zM8.309 19.581h-0.007c-4.412-0.033-7.983-3.591-8.037-7.995l-0-0.005c0.040-4.436 3.646-8.017 8.087-8.017 0.018 0 0.036 0 0.055 0h-0.003c0.819-0.001 1.635 0.12 2.418 0.359 0.216 0.054 0.373 0.247 0.373 0.476 0 0.27-0.219 0.49-0.49 0.49-0.061 0-0.119-0.011-0.173-0.032l0.003 0.001c-0.634-0.2-1.363-0.316-2.119-0.316-0.004 0-0.009 0-0.013 0h0.001c-0.016-0-0.035-0-0.055-0-3.901 0-7.067 3.142-7.106 7.034l-0 0.004c0.052 3.875 3.193 6.999 7.070 7.023h0.002c0.269 0.002 0.486 0.22 0.486 0.489 0 0.27-0.219 0.489-0.489 0.489-0.001 0-0.002 0-0.003 0h0z"></path>
<path d="M26.474 31.757h-18.165c-0.27 0-0.49-0.219-0.49-0.49v-12.174c-0-0.008-0.001-0.017-0.001-0.026 0-0.27 0.219-0.49 0.49-0.49s0.49 0.219 0.49 0.49c0 0.009-0 0.018-0.001 0.027l0-0.001v11.684h17.188v-11.684c0-0.27 0.219-0.489 0.489-0.489s0.489 0.219 0.489 0.489v0 12.174c0 0.27-0.219 0.49-0.49 0.49v0z"></path>
<path d="M29.881 27.014h-18.166c-0.008 0-0.017 0.001-0.026 0.001-0.27 0-0.49-0.219-0.49-0.49s0.219-0.49 0.49-0.49c0.009 0 0.018 0 0.027 0.001l-0.001-0h18.166c0.259 0.014 0.464 0.228 0.464 0.489s-0.205 0.475-0.462 0.489l-0.001 0z"></path>
</symbol>
<symbol id="clock" viewBox="0 0 32 32">
<path d="M16 0c-8.822 0-16 7.178-16 16s7.178 16 16 16c8.822 0 16-7.178 16-16s-7.178-16-16-16zM16 30.933c-8.234 0-14.933-6.699-14.933-14.933s6.699-14.933 14.933-14.933c8.234 0 14.933 6.699 14.933 14.933s-6.699 14.933-14.933 14.933z"></path>
<path d="M16.533 13.878v-5.409c0-0.295-0.239-0.533-0.533-0.533s-0.533 0.238-0.533 0.533v5.409c-0.746 0.194-1.33 0.778-1.524 1.524h-3.809c-0.294 0-0.533 0.238-0.533 0.533s0.239 0.533 0.533 0.533h3.809c0.238 0.917 1.067 1.6 2.058 1.6 1.177 0 2.133-0.957 2.133-2.133 0-0.992-0.683-1.819-1.6-2.058zM16 17.002c-0.588 0-1.067-0.478-1.067-1.067s0.478-1.067 1.067-1.067c0.588 0 1.067 0.478 1.067 1.067s-0.478 1.067-1.067 1.067z"></path>
<path d="M16 5.269c0.294 0 0.533-0.238 0.533-0.533v-0.533c0-0.295-0.239-0.533-0.533-0.533s-0.533 0.238-0.533 0.533v0.533c0 0.295 0.239 0.533 0.533 0.533z"></path>
<path d="M16 26.602c-0.294 0-0.533 0.238-0.533 0.533v0.533c0 0.295 0.239 0.533 0.533 0.533s0.533-0.238 0.533-0.533v-0.533c0-0.295-0.239-0.533-0.533-0.533z"></path>
<path d="M27.733 15.402h-0.533c-0.294 0-0.533 0.238-0.533 0.533s0.239 0.533 0.533 0.533h0.533c0.294 0 0.533-0.238 0.533-0.533s-0.239-0.533-0.533-0.533z"></path>
<path d="M4.8 15.402h-0.533c-0.294 0-0.533 0.238-0.533 0.533s0.239 0.533 0.533 0.533h0.533c0.294 0 0.533-0.238 0.533-0.533s-0.239-0.533-0.533-0.533z"></path>
<path d="M23.919 7.262l-0.377 0.377c-0.209 0.209-0.209 0.546 0 0.754 0.104 0.104 0.241 0.156 0.377 0.156s0.273-0.052 0.377-0.156l0.377-0.377c0.209-0.209 0.209-0.546 0-0.754s-0.546-0.208-0.754 0z"></path>
<path d="M7.703 23.478l-0.377 0.377c-0.209 0.209-0.209 0.546 0 0.754 0.104 0.104 0.241 0.156 0.377 0.156s0.273-0.052 0.377-0.156l0.377-0.377c0.209-0.209 0.209-0.546 0-0.754s-0.546-0.208-0.754 0z"></path>
<path d="M24.297 23.478c-0.209-0.209-0.546-0.209-0.754 0s-0.209 0.546 0 0.754l0.377 0.377c0.104 0.104 0.241 0.156 0.377 0.156s0.273-0.052 0.377-0.156c0.209-0.209 0.209-0.546 0-0.754l-0.377-0.377z"></path>
<path d="M8.081 7.261c-0.209-0.209-0.546-0.209-0.754 0s-0.209 0.546 0 0.754l0.377 0.377c0.104 0.104 0.241 0.156 0.377 0.156s0.273-0.052 0.377-0.156c0.209-0.209 0.209-0.546 0-0.754l-0.377-0.377z"></path>
</symbol>
<symbol id="empty-star" viewBox="0 0 34 32">
<path stroke-width="1.6842" stroke-miterlimit="4" stroke-linecap="butt" stroke-linejoin="miter" d="M16.034 1.819c0.105-0.353 0.427-0.606 0.808-0.606s0.703 0.253 0.807 0.6l0.002 0.006 2.543 7.882c0.337 1.027 1.314 1.735 2.408 1.735h8.286c0.458 0.009 0.825 0.383 0.825 0.842 0 0.275-0.131 0.519-0.335 0.672l-0.002 0.002-6.703 4.884c-0.629 0.465-1.032 1.204-1.032 2.037 0 0.277 0.045 0.544 0.127 0.794l-0.005-0.018 2.56 7.882c0.022 0.072 0.035 0.155 0.035 0.242 0 0.465-0.377 0.842-0.842 0.842-0.184 0-0.354-0.059-0.493-0.159l0.002 0.002-6.703-4.851c-0.41-0.3-0.925-0.48-1.482-0.48s-1.072 0.18-1.489 0.485l0.007-0.005-6.703 4.851c-0.136 0.098-0.306 0.157-0.49 0.157-0.465 0-0.842-0.377-0.842-0.842 0-0.086 0.013-0.169 0.037-0.247l-0.002 0.006 2.56-7.882c0.080-0.236 0.127-0.507 0.127-0.79 0-0.835-0.405-1.575-1.029-2.035l-0.007-0.005-6.703-4.851c-0.205-0.155-0.337-0.399-0.337-0.674 0-0.465 0.377-0.842 0.842-0.842h8.253c0.006 0 0.013 0 0.021 0 1.118 0 2.067-0.727 2.399-1.734l0.005-0.018 2.543-7.882z"></path>
</symbol>
<symbol id="facebook" viewBox="0 0 19 32">
<path d="M16.657 0h-4.16c-4.665 0-7.68 3.099-7.68 7.882v3.621h-4.143c-0.363 0-0.657 0.294-0.657 0.657v0 5.255c0 0.371 0.286 0.674 0.657 0.674h4.16v13.255c0 0.371 0.303 0.657 0.674 0.657h5.423c0.371 0 0.674-0.286 0.674-0.657v-13.272h4.867c0.354 0 0.657-0.286 0.657-0.657v-5.255c0-0 0-0 0-0 0-0.363-0.294-0.657-0.657-0.657-0.006 0-0.012 0-0.018 0l0.001-0h-4.867v-3.082c0-1.465 0.354-2.223 2.291-2.223h2.796c0.337 0 0.64-0.286 0.64-0.657v-4.867c0-0.005 0-0.011 0-0.017 0-0.357-0.285-0.647-0.639-0.657l-0.001-0z"></path>
</symbol>
<symbol id="full-star" viewBox="0 0 34 32">
<path d="M15.242 1.566c0.228-0.678 0.858-1.158 1.6-1.158s1.372 0.48 1.597 1.146l0.003 0.012 2.56 7.865c0.221 0.687 0.853 1.176 1.6 1.179h8.287c0.916 0.019 1.651 0.765 1.651 1.684 0 0.549-0.263 1.037-0.67 1.345l-0.004 0.003-6.686 4.884c-0.429 0.309-0.704 0.807-0.704 1.37 0 0.185 0.030 0.362 0.085 0.528l-0.003-0.012 2.56 7.865c0.054 0.157 0.084 0.338 0.084 0.527 0 0.93-0.754 1.684-1.684 1.684-0.374 0-0.719-0.122-0.999-0.328l0.005 0.003-6.669-4.901c-0.275-0.203-0.62-0.324-0.994-0.324s-0.719 0.122-0.998 0.328l0.005-0.003-6.703 4.884c-0.275 0.203-0.62 0.325-0.994 0.325-0.93 0-1.684-0.754-1.684-1.684 0-0.188 0.031-0.369 0.088-0.539l-0.003 0.012 2.56-7.865c0.051-0.154 0.081-0.332 0.081-0.517 0-0.562-0.276-1.061-0.699-1.366l-0.005-0.003-6.686-4.867c-0.411-0.311-0.674-0.798-0.674-1.347 0-0.924 0.745-1.675 1.667-1.684h8.254c0.003 0 0.007 0 0.010 0 0.75 0 1.385-0.49 1.603-1.167l0.003-0.012 2.56-7.865z"></path>
</symbol>
<symbol id="insta" viewBox="0 0 32 32">
<path d="M16.315 32h-0.318c-0.141 0.001-0.307 0.001-0.474 0.001-2.324 0-4.632-0.071-6.921-0.212l0.314 0.015c-2.067-0.126-3.953-0.84-5.455-2.065-1.448-1.182-2.439-2.781-2.942-4.749-0.438-1.716-0.46-3.399-0.483-5.027-0.017-1.167-0.032-2.552-0.035-3.96 0.003-1.415 0.020-2.799 0.035-3.966 0.024-1.629 0.045-3.311 0.483-5.027 0.504-1.971 1.492-3.567 2.942-4.749 1.502-1.224 3.389-1.939 5.457-2.065 1.977-0.125 4.287-0.196 6.614-0.196 0.166 0 0.331 0 0.497 0.001l-0.026-0c0.135-0.001 0.294-0.001 0.454-0.001 2.331 0 4.646 0.071 6.942 0.212l-0.315-0.015c2.067 0.126 3.953 0.84 5.455 2.065 1.448 1.182 2.439 2.779 2.942 4.749 0.438 1.716 0.46 3.399 0.483 5.027 0.017 1.167 0.034 2.552 0.035 3.96v0.007c-0.003 1.406-0.020 2.791-0.035 3.96-0.024 1.629-0.045 3.311-0.483 5.027-0.504 1.969-1.492 3.567-2.942 4.749-1.502 1.224-3.389 1.939-5.457 2.065-1.965 0.125-4.262 0.196-6.575 0.196-0.067 0-0.134-0-0.201-0h0.010zM15.997 29.499c0.141 0.001 0.308 0.001 0.475 0.001 2.273 0 4.529-0.069 6.768-0.206l-0.307 0.015c1.561-0.094 2.917-0.601 4.025-1.506 1.027-0.837 1.735-1.992 2.1-3.431 0.365-1.428 0.387-2.961 0.406-4.443 0.017-1.162 0.034-2.535 0.037-3.929-0.003-1.395-0.020-2.769-0.037-3.929-0.020-1.482-0.040-3.015-0.404-4.443-0.369-1.44-1.075-2.594-2.1-3.431-1.112-0.904-2.466-1.411-4.029-1.506-1.94-0.123-4.206-0.193-6.489-0.193-0.154 0-0.308 0-0.462 0.001l0.024-0c-0.135-0.001-0.294-0.001-0.453-0.001-2.28 0-4.544 0.070-6.789 0.208l0.308-0.015c-1.563 0.094-2.919 0.601-4.029 1.506-1.026 0.837-1.731 1.991-2.099 3.431-0.365 1.428-0.387 2.961-0.406 4.443-0.017 1.162-0.034 2.536-0.037 3.933 0.003 1.388 0.020 2.764 0.037 3.924 0.020 1.482 0.040 3.015 0.404 4.443 0.369 1.44 1.075 2.594 2.1 3.432 1.112 0.904 2.466 1.411 4.029 1.506 2.2 0.135 4.467 0.197 6.927 0.19zM15.938 23.813c-4.313-0.005-7.808-3.5-7.813-7.813v-0c0.005-4.313 3.5-7.808 7.813-7.813h0c4.313 0.005 7.808 3.5 7.813 7.813v0c-0.005 4.314-3.501 7.809-7.814 7.813h-0zM15.938 10.688c-2.933 0.003-5.31 2.379-5.314 5.312v0c0.004 2.933 2.381 5.309 5.313 5.312h0c2.932-0.004 5.308-2.38 5.312-5.312v-0c-0.004-2.932-2.38-5.308-5.312-5.312h-0zM24.625 5.686c-1.036 0-1.875 0.84-1.875 1.875s0.84 1.875 1.875 1.875v0c1.035 0 1.875-0.839 1.875-1.875s-0.839-1.875-1.875-1.875v0z"></path>
</symbol>
<symbol id="location" viewBox="0 0 23 32">
<path d="M11.733 1.193c6.47 0 11.733 5.264 11.733 11.733 0 2.56-0.809 4.993-2.341 7.034l-8.669 11.676c-0.022 0.028-0.055 0.039-0.079 0.064-0.433 0.464-1.058 0.347-1.367-0.064-2.496-3.331-7.072-9.552-8.832-11.899 0 0-0.001-0.002-0.001-0.003l-0.011-0.014c-1.418-1.992-2.167-4.341-2.167-6.794 0-6.47 5.264-11.733 11.733-11.733zM11.733 19.256c3.483 0 6.33-2.847 6.33-6.33s-2.847-6.33-6.33-6.33c-3.483 0-6.33 2.847-6.33 6.33s2.847 6.33 6.33 6.33z"></path>
</symbol>
<symbol id="menu" viewBox="0 0 60 32">
<path d="M2 0h56c1.105 0 2 0.895 2 2s-0.895 2-2 2h-56c-1.105 0-2-0.895-2-2s0.895-2 2-2z"></path>
<path d="M2 14h56c1.105 0 2 0.895 2 2s-0.895 2-2 2h-56c-1.105 0-2-0.895-2-2s0.895-2 2-2z"></path>
<path d="M2 28h56c1.105 0 2 0.895 2 2s-0.895 2-2 2h-56c-1.105 0-2-0.895-2-2s0.895-2 2-2z"></path>
</symbol>
<symbol id="phone" viewBox="0 0 32 32">
<path d="M29.44 20.997c-1.969 0-3.889-0.295-5.711-0.911-0.886-0.295-1.994 0-2.535 0.542l-3.594 2.708c-3.908-1.958-7.007-5.041-8.932-8.822l-0.052-0.113 2.708-3.495c0.665-0.689 0.911-1.674 0.615-2.634-0.577-1.698-0.911-3.654-0.911-5.688 0-0.008 0-0.016 0-0.024v0.001c-0.025-1.403-1.157-2.56-2.585-2.56h-5.883c-1.403 0-2.56 1.157-2.56 2.56 0 16.246 13.194 29.44 29.44 29.44 1.403 0 2.56-1.157 2.56-2.56v-5.858c0-1.428-1.157-2.585-2.56-2.585z"></path>
</symbol>
<symbol id="twitter" viewBox="0 0 40 32">
<path d="M40.421 3.789c-1.516 0.64-3.099 1.061-4.783 1.28 1.718-0.99 3.017-2.545 3.655-4.406l0.017-0.057c-1.514 0.89-3.276 1.568-5.148 1.936l-0.107 0.017c-1.533-1.58-3.675-2.56-6.047-2.56-0.018 0-0.035 0-0.053 0h0.003c-0.025-0-0.055-0-0.085-0-4.521 0-8.185 3.665-8.185 8.185 0 0.615 0.068 1.214 0.196 1.79l-0.010-0.055c-6.888-0.337-12.968-3.537-17.078-8.455-0.709 1.167-1.128 2.578-1.128 4.087 0 2.805 1.449 5.271 3.64 6.69l0.031 0.019c-1.368-0.034-2.644-0.392-3.766-0.999l0.044 0.022v0.084c0 3.924 2.863 7.192 6.636 7.933-0.65 0.179-1.397 0.282-2.167 0.282-0.556 0-1.099-0.054-1.625-0.156l0.053 0.009c1.144 3.259 4.169 5.565 7.74 5.625l0.007 0c-2.807 2.147-6.367 3.44-10.229 3.44-0.716 0-1.422-0.044-2.115-0.131l0.083 0.008c3.58 2.272 7.939 3.621 12.614 3.621 0.036 0 0.071-0 0.107-0l-0.005 0c0.136 0.003 0.296 0.005 0.456 0.005 12.762 0 23.107-10.346 23.107-23.107 0-0.321-0.007-0.641-0.020-0.96l0.001 0.046c1.642-1.154 3.023-2.551 4.124-4.155l0.036-0.055z"></path>
</symbol>
<symbol id="two-peoples" viewBox="0 0 35 32">
<path d="M11.847 0c-3.678 0-6.674 2.996-6.674 6.674s2.996 6.674 6.674 6.674c3.678 0 6.674-2.996 6.674-6.674s-2.996-6.674-6.674-6.674zM11.847 12.229c-3.071 0-5.562-2.498-5.562-5.562s2.498-5.562 5.562-5.562c3.071 0 5.562 2.498 5.562 5.562s-2.498 5.562-5.562 5.562z"></path>
<path d="M25.516 2.771c-2.764 0-5.009 2.245-5.009 5.009s2.245 5.009 5.009 5.009c2.764 0 5.009-2.245 5.009-5.009s-2.245-5.009-5.009-5.009zM25.516 11.683c-2.15 0-3.897-1.747-3.897-3.897s1.747-3.897 3.897-3.897c2.15 0 3.897 1.747 3.897 3.897s-1.747 3.897-3.897 3.897z"></path>
<path d="M34.476 20.131c-0.505-3.044-2.395-5.609-5.616-6.954 0 0-1.426 1.078-3.344 1.044-2.095-0.041-3.344-1.044-3.344-1.044s-1.556 0.58-2.811 1.788c-1.16-1.030-3.119-1.87-3.119-1.87s-1.795 1.365-4.402 1.344c-2.736-0.020-4.388-1.344-4.388-1.344s-5.916 2.034-7.165 8.933c0 0-1.338 3.658 1.761 9.124h19.606c0 0 1.392-2.423 1.638-3.897h9.752c2.395-3.63 1.433-7.124 1.433-7.124zM20.964 30.040h-18.227c-2.382-4.524-1.351-7.827-1.351-7.827 0.58-3.46 2.805-6.381 5.985-7.861 2.73 1.604 6.23 1.604 8.96 0 3.18 1.481 5.405 4.401 5.985 7.861-0.007 0 0.983 4.067-1.351 7.827zM32.394 26.143h-8.878c0.341-1.965-0.109-4.115-0.109-4.115-0.403-2.429-1.549-4.62-3.228-6.312 0.573-0.519 1.208-0.949 1.904-1.283 2.095 1.201 4.763 1.201 6.858 0 2.354 1.126 4.006 3.303 4.436 5.882 0 0 0.812 2.757-0.983 5.828z"></path>
</symbol>
</defs>
</svg>
