<svg aria-hidden="true" style="position: absolute; width: 0; height: 0; overflow: hidden;" version="1.1" xmlns="http://www.w3.org/2000/svg" xmlns:xlink="http://www.w3.org/1999/xlink">
<defs>
<symbol id="chat" viewBox="0 0 47 32">
<path d="M35.987 13.842c0-8.361-8.814-13.842-17.614-13.842-8.835 0-17.614 5.506-17.614 13.842 0 3.154 1.381 6.237 3.889 8.684 0.096 0.094 0.133 0.236 0.096 0.371-0.788 2.886-2.654 5.493-3.419 6.48-0.131 0.166-0.211 0.379-0.211 0.61 0 0.164 0.040 0.319 0.111 0.456l-0.003-0.005c0.165 0.327 0.499 0.547 0.883 0.547 0.002 0 0.003 0 0.005 0h-0l0.026-0c3.746-0.093 8.089-1.151 10.773-3.79 0.069-0.067 0.163-0.109 0.267-0.109 0.033 0 0.065 0.004 0.095 0.012l-0.003-0.001c1.649 0.391 3.366 0.589 5.103 0.589 8.832-0 17.614-5.504 17.614-13.842zM13.58 25.79c-0.583-0.138-1.185 0.028-1.61 0.446-2.684 2.639-7.067 3.239-9.142 3.372 0.948-1.308 2.489-3.711 3.211-6.359 0.165-0.605-0.009-1.25-0.453-1.684-2.279-2.223-3.484-4.894-3.484-7.723 0-6.893 7.3-12.501 16.272-12.501s16.272 5.608 16.272 12.501c0 6.893-7.3 12.501-16.272 12.501-1.633 0-3.245-0.186-4.793-0.553z"></path>
<path d="M40.3 24.986c3.91-1.976 6.245-5.344 6.245-9.010 0-5.181-4.683-9.607-11.135-10.526-0.028-0.004-0.061-0.007-0.095-0.007-0.37 0-0.671 0.3-0.671 0.671 0 0.337 0.249 0.616 0.572 0.664l0.004 0c5.784 0.823 9.983 4.692 9.983 9.198 0 3.149-2.059 6.070-5.509 7.813-0.544 0.279-0.91 0.837-0.91 1.479 0 0.122 0.013 0.24 0.038 0.354l-0.002-0.011c0.327 1.537 1.023 2.96 1.58 3.924-3.961-0.659-5.462-2.56-5.937-3.382-0.293-0.508-0.841-0.823-1.432-0.823h-0.005l-0.049 0c-0.744 0-1.488-0.052-2.213-0.153-0.028-0.004-0.060-0.006-0.093-0.006-0.338 0-0.617 0.249-0.664 0.574l-0 0.004c-0.004 0.028-0.007 0.060-0.007 0.093 0 0.338 0.249 0.617 0.574 0.664l0.004 0c0.72 0.106 1.55 0.166 2.395 0.166 0.002 0 0.003 0 0.005 0h-0l0.056-0c0.001 0 0.002 0 0.003 0 0.113 0 0.211 0.060 0.266 0.15l0.001 0.001c1.816 3.148 5.992 3.952 7.703 4.151 0.035 0.005 0.076 0.007 0.117 0.007 0.346 0 0.649-0.182 0.82-0.455l0.002-0.004c0.094-0.146 0.149-0.324 0.149-0.515 0-0.195-0.058-0.377-0.158-0.529l0.002 0.004c-0.515-0.803-1.435-2.409-1.806-4.15-0.004-0.019-0.007-0.042-0.007-0.064 0-0.123 0.070-0.229 0.172-0.281l0.002-0.001zM7.937 11.443c-1.282 0-2.324 1.043-2.324 2.324s1.043 2.325 2.324 2.325 2.324-1.043 2.324-2.324c0-1.282-1.043-2.325-2.324-2.325zM7.937 14.751c-0.543-0.001-0.982-0.44-0.983-0.983v-0c0.001-0.543 0.44-0.982 0.983-0.983h0c0.543 0.001 0.982 0.44 0.983 0.983v0c-0.001 0.543-0.44 0.982-0.983 0.983h-0zM14.568 11.443c-1.282 0-2.324 1.043-2.324 2.324s1.043 2.325 2.324 2.325 2.324-1.043 2.324-2.324c0-1.282-1.043-2.325-2.325-2.325zM14.568 14.751c-0.543-0.001-0.982-0.44-0.983-0.983v-0c0.001-0.543 0.44-0.982 0.983-0.983h0c0.543 0.001 0.982 0.44 0.983 0.983v0c-0.001 0.543-0.44 0.982-0.983 0.983h-0zM21.199 11.443c-1.282 0-2.324 1.043-2.324 2.324s1.043 2.325 2.324 2.325 2.325-1.043 2.325-2.324c0-1.282-1.043-2.325-2.325-2.325zM21.199 14.751c-0.543-0.001-0.982-0.44-0.983-0.983v-0c0.001-0.543 0.44-0.982 0.983-0.983h0c0.543 0.001 0.982 0.44 0.983 0.983v0c-0.001 0.543-0.44 0.982-0.983 0.983h-0zM27.83 11.443c-1.282 0-2.325 1.043-2.325 2.324s1.043 2.325 2.325 2.325 2.324-1.043 2.324-2.324c0-1.282-1.043-2.325-2.324-2.325zM27.83 14.751c-0.543-0.001-0.982-0.44-0.983-0.983v-0c0.001-0.543 0.44-0.982 0.983-0.983h0c0.543 0.001 0.982 0.44 0.983 0.983v0c0 0.542-0.441 0.983-0.983 0.983z"></path>
</symbol>
<symbol id="chef-hat" viewBox="0 0 35 32">
<path d="M25.046 8.506c0 0 0 0 0 0-0.27 0-0.489-0.218-0.49-0.488v-0c-0.079-3.896-3.256-7.024-7.164-7.024s-7.085 3.128-7.164 7.017l-0 0.007c0 0.27-0.219 0.49-0.49 0.49s-0.49-0.219-0.49-0.49v0c0.060-4.451 3.683-8.037 8.143-8.037s8.083 3.585 8.143 8.031l0 0.006c-0.001 0.269-0.219 0.488-0.488 0.488h-0z"></path>
<path d="M26.474 19.581c-0.26-0.013-0.467-0.227-0.467-0.489 0-0.26 0.203-0.473 0.46-0.489l0.001-0c3.88-0.023 7.022-3.148 7.073-7.018l0-0.005c-0.039-3.895-3.206-7.037-7.106-7.037-0.019 0-0.037 0-0.056 0l0.003-0c-0.723 0-1.441 0.106-2.133 0.316-0.035 0.009-0.075 0.014-0.117 0.014-0.27 0-0.49-0.219-0.49-0.49 0-0.209 0.132-0.388 0.317-0.458l0.003-0.001c0.72-0.228 1.548-0.359 2.407-0.359 0.004 0 0.009 0 0.013 0h-0.001c0.015-0 0.034-0 0.052-0 4.441 0 8.046 3.58 8.086 8.012l0 0.004c-0.054 4.41-3.625 7.969-8.036 8.001l-0.003 0h-0.007zM8.309 19.581h-0.007c-4.412-0.033-7.983-3.591-8.037-7.995l-0-0.005c0.040-4.436 3.646-8.017 8.087-8.017 0.018 0 0.036 0 0.055 0h-0.003c0.819-0.001 1.635 0.12 2.418 0.359 0.216 0.054 0.373 0.247 0.373 0.476 0 0.27-0.219 0.49-0.49 0.49-0.061 0-0.119-0.011-0.173-0.032l0.003 0.001c-0.634-0.2-1.363-0.316-2.119-0.316-0.004 0-0.009 0-0.013 0h0.001c-0.016-0-0.035-0-0.055-0-3.901 0-7.067 3.142-7.106 7.034l-0 0.004c0.052 3.875 3.193 6.999 7.070 7.023h0.002c0.269 0.002 0.486 0.22 0.486 0.489 0 0.27-0.219 0.489-0.489 0.489-0.001 0-0.002 0-0.003 0h0z"></path>
<path d="M26.474 31.757h-18.165c-0.27 0-0.49-0.219-0.49-0.49v-12.174c-0-0.008-0.001-0.017-0.001-0.026 0-0.27 0.219-0.49 0.49-0.49s0.49 0.219 0.49 0.49c0 0.009-0 0.018-0.001 0.027l0-0.001v11.684h17.188v-11.684c0-0.27 0.219-0.489 0.489-0.489s0.489 0.219 0.489 0.489v0 12.174c0 0.27-0.219 0.49-0.49 0.49v0z"></path>
<path d="M29.881 27.014h-18.166c-0.008 0-0.017 0.001-0.026 0.001-0.27 0-0.49-0.219-0.49-0.49s0.219-0.49 0.49-0.49c0.009 0 0.018 0 0.027 0.001l-0.001-0h18.166c0.259 0.014 0.464 0.228 0.464 0.489s-0.205 0.475-0.462 0.489l-0.001 0z"></path>
</symbol>
<symbol id="clock" viewBox="0 0 32 32">
<path d="M16 0c-8.822 0-16 7.178-16 16s7.178 16 16 16c8.822 0 16-7.178 16-16s-7.178-16-16-16zM16 30.933c-8.234 0-14.933-6.699-14.933-14.933s6.699-14.933 14.933-14.933c8.234 0 14.933 6.699 14.933 14.933s-6.699 14.933-14.933 14.933z"></path>
<path d="M16.533 13.878v-5.409c0-0.295-0.239-0.533-0.533-0.533s-0.533 0.238-0.533 0.533v5.409c-0.746 0.194-1.33 0.778-1.524 1.524h-3.809c-0.294 0-0.533 0.238-0.533 0.533s0.239 0.533 0.533 0.533h3.809c0.238 0.917 1.067 1.6 2.058 1.6 1.177 0 2.133-0.957 2.133-2.133 0-0.992-0.683-1.819-1.6-2.058zM16 17.002c-0.588 0-1.067-0.478-1.067-1.067s0.478-1.067 1.067-1.067c0.588 0 1.067 0.478 1.067 1.067s-0.478 1.067-1.067 1.067z"></path>
<path d="M16 5.269c0.294 0 0.533-0.238 0.533-0.533v-0.533c0-0.295-0.239-0.533-0.533-0.533s-0.533 0.238-0.533 0.533v0.533c0 0.295 0.239 0.533 0.533 0.533z"></path>
<path d="M16 26.602c-0.294 0-0.533 0.238-0.533 0.533v0.533c0 0.295 0.239 0.533 0.533 0.533s0.533-0.238 0.533-0.533v-0.533c0-0.295-0.239-0.533-0.533-0.533z"></path>
<path d="M27.733 15.402h-0.533c-0.294 0-0.533 0.238-0.533 0.533s0.239 0.533 0.533 0.533h0.533c0.294 0 0.533-0.238 0.533-0.533s-0.239-0.533-0.533-0.533z"></path>
<path d="M4.8 15.402h-0.533c-0.294 0-0.533 0.238-0.533 0.533s0.239 0.533 0.533 0.533h0.533c0.294 0 0.533-0.238 0.533-0.533s-0.239-0.533-0.533-0.533z"></path>
<path d="M23.919 7.262l-0.377 0.377c-0.209 0.209-0.209 0.546 0 0.754 0.104 0.104 0.241 0.156 0.377 0.156s0.273-0.052 0.377-0.156l0.377-0.377c0.209-0.209 0.209-0.546 0-0.754s-0.546-0.208-0.754 0z"></path>
<path d="M7.703 23.478l-0.377 0.377c-0.209 0.209-0.209 0.546 0 0.754 0.104 0.104 0.241 0.156 0.377 0.156s0.273-0.052 0.377-0.156l0.377-0.377c0.209-0.209 0.209-0.546 0-0.754s-0.546-0.208-0.754 0z"></path>
<path d="M24.297 23.478c-0.209-0.209-0.546-0.209-0.754 0s-0.209 0.546 0 0.754l0.377 0.377c0.104 0.104 0.241 0.156 0.377 0.156s0.273-0.052 0.377-0.156c0.209-0.209 0.209-0.546 0-0.754l-0.377-0.377z"></path>
<path d="M8.081 7.261c-0.209-0.209-0.546-0.209-0.754 0s-0.209 0.546 0 0.754l0.377 0.377c0.104 0.104 0.241 0.156 0.377 0.156s0.273-0.052 0.377-0.156c0.209-0.209 0.209-0.546 0-0.754l-0.377-0.377z"></path>
</symbol>
<symbol id="empty-star" viewBox="0 0 34 32">
<path stroke-width="1.6842" stroke-miterlimit="4" stroke-linecap="butt" stroke-linejoin="miter" d="M16.034 1.819c0.105-0.353 0.427-0.606 0.808-0.606s0.703 0.253 0.807 0.6l0.002 0.006 2.543 7.882c0.337 1.027 1.314 1.735 2.408 1.735h8.286c0.458 0.009 0.825 0.383 0.825 0.842 0 0.275-0.131 0.519-0.335 0.672l-0.002 0.002-6.703 4.884c-0.629 0.465-1.032 1.204-1.032 2.037 0 0.277 0.045 0.544 0.127 0.794l-0.005-0.018 2.56 7.882c0.022 0.072 0.035 0.155 0.035 0.242 0 0.465-0.377 0.842-0.842 0.842-0.184 0-0.354-0.059-0.493-0.159l0.002 0.002-6.703-4.851c-0.41-0.3-0.925-0.48-1.482-0.48s-1.072 0.18-1.489 0.485l0.007-0.005-6.703 4.851c-0.136 0.098-0.306 0.157-0.49 0.157-0.465 0-0.842-0.377-0.842-0.842 0-0.086 0.013-0.169 0.037-0.247l-0.002 0.006 2.56-7.882c0.080-0.236 0.127-0.507 0.127-0.79 0-0.835-0.405-1.575-1.029-2.035l-0.007-0.005-6.703-4.851c-0.205-0.155-0.337-0.399-0.337-0.674 0-0.465 0.377-0.842 0.842-0.842h8.253c0.006 0 0.013 0 0.021 0 1.118 0 2.067-0.727 2.399-1.734l0.005-0.018 2.543-7.882z"></path>
</symbol>
<symbol id="facebook" viewBox="0 0 19 32">
<path d="M16.657 0h-4.16c-4.665 0-7.68 3.099-7.68 7.882v3.621h-4.143c-0.363 0-0.657 0.294-0.657 0.657v0 5.255c0 0.371 0.286 0.674 0.657 0.674h4.16v13.255c0 0.371 0.303 0.657 0.674 0.657h5.423c0.371 0 0.674-0.286 0.674-0.657v-13.272h4.867c0.354 0 0.657-0.286 0.657-0.657v-5.255c0-0 0-0 0-0 0-0.363-0.294-0.657-0.657-0.657-0.006 0-0.012 0-0.018 0l0.001-0h-4.867v-3.082c0-1.465 0.354-2.223 2.291-2.223h2.796c0.337 0 0.64-0.286 0.64-0.657v-4.867c0-0.005 0-0.011 0-0.017 0-0.357-0.285-0.647-0.639-0.657l-0.001-0z"></path>
</symbol>
<symbol id="full-star" viewBox="0 0 34 32">
<path d="M15.242 1.566c0.228-0.678 0.858-1.158 1.6-1.158s1.372 0.48 1.597 1.146l0.003 0.012 2.56 7.865c0.221 0.687 0.853 1.176 1.6 1.179h8.287c0.916 0.019 1.651 0.765 1.651 1.684 0 0.549-0.263 1.037-0.67 1.345l-0.004 0.003-6.686 4.884c-0.429 0.309-0.704 0.807-0.704 1.37 0 0.185 0.030 0.362 0.085 0.528l-0.003-0.012 2.56 7.865c0.054 0.157 0.084 0.338 0.084 0.527 0 0.93-0.754 1.684-1.684 1.684-0.374 0-0.719-0.122-0.999-0.328l0.005 0.003-6.669-4.901c-0.275-0.203-0.62-0.324-0.994-0.324s-0.719 0.122-0.998 0.328l0.005-0.003-6.703 4.884c-0.275 0.203-0.62 0.325-0.994 0.325-0.93 0-1.684-0.754-1.684-1.684 0-0.188 0.031-0.369 0.088-0.539l-0.003 0.012 2.56-7.865c0.051-0.154 0.081-0.332 0.081-0.517 0-0.562-0.276-1.061-0.699-1.366l-0.005-0.003-6.686-4.867c-0.411-0.311-0.674-0.798-0.674-1.347 0-0.924 0.745-1.675 1.667-1.684h8.254c0.003 0 0.007 0 0.010 0 0.75 0 1.385-0.49 1.603-1.167l0.003-0.012 2.56-7.865z"></path>
</symbol>
<symbol id="insta" viewBox="0 0 32 32">
<path d="M16.315 32h-0.318c-0.141 0.001-0.307 0.001-0.474 0.001-2.324 0-4.632-0.071-6.921-0.212l0.314 0.015c-2.067-0.126-3.953-0.84-5.455-2.065-1.448-1.182-2.439-2.781-2.942-4.749-0.438-1.716-0.46-3.399-0.483-5.027-0.017-1.167-0.032-2.552-0.035-3.96 0.003-1.415 0.020-2.799 0.035-3.966 0.024-1.629 0.045-3.311 0.483-5.027 0.504-1.971 1.492-3.567 2.942-4.749 1.502-1.224 3.389-1.939 5.457-2.065 1.977-0.125 4.287-0.196 6.614-0.196 0.166 0 0.331 0 0.497 0.001l-0.026-0c0.135-0.001 0.294-0.001 0.454-0.001 2.331 0 4.646 0.071 6.942 0.212l-0.315-0.015c2.067 0.126 3.953 0.84 5.455 2.065 1.448 1.182 2.439 2.779 2.942 4.749 0.438 1.716 0.46 3.399 0.483 5.027 0.017 1.167 0.034 2.552 0.035 3.96v0.007c-0.003 1.406-0.020 2.791-0.035 3.96-0.024 1.629-0.045 3.311-0.483 5.027-0.504 1.969-1.492 3.567-2.942 4.749-1.502 1.224-3.389 1.939-5.457 2.065-1.965 0.125-4.262 0.196-6.575 0.196-0.067 0-0.134-0-0.201-0h0.010zM15.997 29.499c0.141 0.001 0.308 0.001 0.475 0.001 2.273 0 4.529-0.069 6.768-0.206l-0.307 0.015c1.561-0.094 2.917-0.601 4.025-1.506 1.027-0.837 1.735-1.992 2.1-3.431 0.365-1.428 0.387-2.961 0.406-4.443 0.017-1.162 0.034-2.535 0.037-3.929-0.003-1.395-0.020-2.769-0.037-3.929-0.020-1.482-0.040-3.015-0.404-4.443-0.369-1.44-1.075-2.594-2.1-3.431-1.112-0.904-2.466-1.411-4.029-1.506-1.94-0.123-4.206-0.193-6.489-0.193-0.154 0-0.308 0-0.462 0.001l0.024-0c-0.135-0.001-0.294-0.001-0.453-0.001-2.28 0-4.544 0.070-6.789 0.208l0.308-0.015c-1.563 0.094-2.919 0.601-4.029 1.506-1.026 0.837-1.731 1.991-2.099 3.431-0.365 1.428-0.387 2.961-0.406 4.443-0.017 1.162-0.034 2.536-0.037 3.933 0.003 1.388 0.020 2.764 0.037 3.924 0.020 1.482 0.040 3.015 0.404 4.443 0.369 1.44 1.075 2.594 2.1 3.432 1.112 0.904 2.466 1.411 4.029 1.506 2.2 0.135 4.467 0.197 6.927 0.19zM15.938 23.813c-4.313-0.005-7.808-3.5-7.813-7.813v-0c0.005-4.313 3.5-7.808 7.813-7.813h0c4.313 0.005 7.808 3.5 7.813 7.813v0c-0.005 4.314-3.501 7.809-7.814 7.813h-0zM15.938 10.688c-2.933 0.003-5.31 2.379-5.314 5.312v0c0.004 2.933 2.381 5.309 5.313 5.312h0c2.932-0.004 5.308-2.38 5.312-5.312v-0c-0.004-2.932-2.38-5.308-5.312-5.312h-0zM24.625 5.686c-1.036 0-1.875 0.84-1.875 1.875s0.84 1.875 1.875 1.875v0c1.035 0 1.875-0.839 1.875-1.875s-0.839-1.875-1.875-1.875v0z"></path>
</symbol>
<symbol id="location" viewBox="0 0 23 32">
<path d="M11.733 1.193c6.47 0 11.733 5.264 11.733 11.733 0 2.56-0.809 4.993-2.341 7.034l-8.669 11.676c-0.022 0.028-0.055 0.039-0.079 0.064-0.433 0.464-1.058 0.347-1.367-0.064-2.496-3.331-7.072-9.552-8.832-11.899 0 0-0.001-0.002-0.001-0.003l-0.011-0.014c-1.418-1.992-2.167-4.341-2.167-6.794 0-6.47 5.264-11.733 11.733-11.733zM11.733 19.256c3.483 0 6.33-2.847 6.33-6.33s-2.847-6.33-6.33-6.33c-3.483 0-6.33 2.847-6.33 6.33s2.847 6.33 6.33 6.33z"></path>
</symbol>
<symbol id="logo" viewBox="0 0 71 32">
<path d="M42.261 15.997c0 0.261-0.008 0.521 0 0.783 0.089 2.653-0.736 5.043-2.060 7.296-0.444 0.756-0.868 1.524-1.25 2.314-0.316 0.649-0.754 1.104-1.436 1.37-0.381 0.148-0.734 0.405-1.053 0.669-1.469 1.218-3.136 2.091-4.919 2.705-1.184 0.408-2.403 0.767-3.69 0.751-0.384-0.004-0.768 0.114-1.152 0.115s-0.768-0.124-1.149-0.108c-1.659 0.071-3.196-0.441-4.721-0.979-1.665-0.586-3.136-1.513-4.519-2.617-1.952-1.558-3.343-3.52-4.365-5.765-0.551-1.211-1-2.46-1.127-3.804-0.021-0.223-0.095-0.444-0.16-0.66-0.464-1.507-0.197-2.985 0.090-4.486 0.22-1.148 0.445-2.283 0.873-3.373 1.13-2.884 2.925-5.245 5.411-7.1 2.072-1.545 4.392-2.494 6.913-2.902 2.894-0.468 5.718-0.131 8.459 0.963 1.368 0.548 2.658 1.241 3.785 2.159 1.051 0.856 1.999 1.858 2.895 2.883 0.812 0.928 1.388 2.034 1.903 3.162 0.804 1.762 1.328 3.586 1.274 5.546-0.012 0.362-0.003 0.721-0.004 1.080zM41.151 12.427c-0.080-0.616-0.13-1.329-0.28-2.022-0.427-1.992-1.576-3.548-3.107-4.818-0.869-0.722-1.817-1.349-2.751-1.988-0.316-0.216-0.684-0.415-1.053-0.481-0.95-0.176-1.91-0.34-2.873-0.389-1.671-0.085-3.172-0.518-4.433-1.685-0.929-0.858-1.939-0.941-2.904-0.186-1.094 0.855-2.339 1.357-3.607 1.854-0.93 0.364-1.825 0.823-2.719 1.276-0.747 0.379-1.182 0.971-1.172 1.867 0.006 0.503-0.224 0.923-0.687 1.201-0.387 0.234-0.758 0.492-1.112 0.773-0.989 0.781-1.76 1.661-1.926 3.027-0.132 1.080-0.457 2.148-1.194 3.038-0.246 0.306-0.399 0.677-0.44 1.069-0.068 0.807-0.040 1.625-0.020 2.437 0.006 0.217 0.1 0.45 0.21 0.642 0.255 0.452 0.532 0.891 0.831 1.315 0.724 1.010 1.353 2.046 1.499 3.329 0.141 1.244 0.739 2.257 1.751 3.030 1.466 1.121 2.879 2.311 4.367 3.402 0.8 0.588 1.656 1.102 2.711 1.221s2.089 0.408 3.035 0.941c0.198 0.107 0.416 0.174 0.64 0.197 1.334 0.144 2.57-0.187 3.741-0.814 0.367-0.197 0.746-0.375 1.126-0.546 0.916-0.412 1.931-0.682 2.729-1.255 0.887-0.639 1.836-0.923 2.855-1.101 0.44-0.077 0.8-0.259 1.086-0.588 0.342-0.39 0.658-0.802 1.015-1.179 0.368-0.389 0.634-0.802 0.699-1.356 0.099-0.849 0.461-1.599 0.92-2.319 0.777-1.217 1.219-2.562 1.449-3.992 0.060-0.375 0.095-0.692-0.090-1.023-0.535-0.953-0.317-2.035-0.486-3.049-0.086-0.548 0.112-1.148 0.194-1.832l-0.002 0.001zM34.71 2.909c-0.226-0.251-0.298-0.364-0.4-0.434-0.185-0.128-0.386-0.233-0.583-0.344-1.68-0.95-3.519-1.412-5.399-1.743-0.378-0.067-0.775-0.037-1.16-0.022-0.1 0.004-0.22 0.102-0.284 0.19-0.029 0.040 0.036 0.18 0.092 0.248 0.418 0.5 0.963 0.878 1.578 1.092 1.061 0.383 2.177 0.594 3.304 0.623 0.477 0.013 0.954 0.104 1.429 0.169 0.406 0.058 0.811 0.127 1.421 0.223zM20.441 30.284c-1.127-0.925-2.115-1.752-3.121-2.556-0.833-0.666-1.683-1.309-2.534-1.951-0.096-0.072-0.246-0.070-0.455-0.124 1.025 1.728 4.449 4.354 6.111 4.632zM12.846 8.699c0.68-0.521 1.309-1.070 1.999-1.524 0.968-0.633 1.338-1.421 1.11-2.773-0.687 0.564-1.177 1.244-1.707 1.861-0.56 0.651-0.975 1.426-1.442 2.155-0.036 0.059 0.022 0.175 0.039 0.281zM35.774 28.421c-0.634-0.044-1.273 0.069-1.671 0.412-0.755 0.652-1.653 0.98-2.567 1.306-0.48 0.171-0.932 0.422-1.384 0.661-0.062 0.033-0.074 0.209-0.061 0.313 0.004 0.035 0.174 0.092 0.243 0.069 0.821-0.281 1.668-0.507 2.445-0.882 0.953-0.459 1.847-1.040 2.759-1.579 0.096-0.054 0.146-0.181 0.235-0.299zM11.544 19.382c-0.182 0.54-0.146 0.838-0.032 1.156 0.318 0.882 0.511 1.814 1.084 2.585 0.212 0.286 0.256 0.925 0.648 0.787 0.345-0.12-0.059-0.627-0.082-0.968-0.090-1.304-0.773-2.355-1.618-3.561zM17.696 3.142l0.085 0.129c0.474-0.176 0.952-0.343 1.421-0.532 1.019-0.41 2.036-0.829 3.049-1.254 0.204-0.087 0.391-0.225 0.566-0.366 0.049-0.040 0.040-0.175 0.025-0.258-0.008-0.037-0.104-0.078-0.16-0.080-0.095 0.002-0.189 0.018-0.28 0.047-1.377 0.393-2.676 0.974-3.919 1.68-0.291 0.165-0.527 0.422-0.787 0.636zM41.884 17.147c0.083-0.097 0.148-0.138 0.153-0.183 0.134-1.421-0.016-2.829-0.21-4.233-0.010-0.071-0.107-0.172-0.174-0.18-0.073-0.010-0.187 0.051-0.232 0.117-0.073 0.104-0.118 0.225-0.132 0.352-0.073 1.158 0.003 2.321 0.226 3.46 0.044 0.23 0.234 0.432 0.367 0.668zM11.212 13.227c0.537-0.206 0.618-0.578 0.675-0.915 0.14-0.82 0.491-1.61 0.375-2.477-0.562 1.035-1.060 2.083-1.051 3.392h-0zM24.219 31.234c-1.205-0.535-1.532-0.591-2.604-0.441 0.455 0.173 0.864 0.448 1.275 0.452 0.429 0.006 0.894 0.534 1.329-0.011h-0z"></path>
<path d="M26.704 20.593c-0.824-0.015-1.39-0.361-1.809-1.030-0.39-0.624-1.040-0.947-1.634-1.332-0.75-0.484-1.36-1.031-1.533-2.012-0.12-0.665 0.020-1.244 0.289-1.769 0.226-0.439 0.629-0.847 1.053-1.108 0.459-0.283 0.84-0.55 1.052-1.073 0.24-0.602 0.845-0.638 1.38-0.746 0.504-0.102 1.017-0.167 1.514-0.295 0.68-0.174 1.297-0.12 1.794 0.411 0.384 0.412 0.832 0.708 1.332 0.958 0.52 0.26 0.691 0.564 0.529 1.107-0.111 0.369-0.004 0.62 0.133 0.914 0.15 0.321 0.303 0.647 0.406 0.986 0.342 1.128-0.052 2.077-1.106 2.58-0.653 0.311-1.154 0.726-1.316 1.456-0.065 0.294-0.248 0.461-0.506 0.537-0.521 0.153-1.050 0.28-1.576 0.417zM30.162 15.864c0.017-1.987-1.484-3.576-3.435-3.579-1.751 0-3.512 1.189-3.58 3.469-0.055 1.824 1.459 3.524 3.432 3.53 2.403 0.012 3.536-1.663 3.583-3.42zM23.128 17.764c0-0.255 0.024-0.385-0.004-0.503-0.259-1.079-0.427-2.148 0.16-3.188 0.042-0.075-0.055-0.229-0.088-0.346-0.115 0.037-0.254 0.045-0.341 0.117-0.97 0.799-1.402 2.718 0.273 3.92zM26.73 11.787c0.406 0.149 0.637 0.255 0.88 0.321 0.894 0.237 1.656 0.664 2.187 1.451 0.105 0.155 0.24 0.385 0.44 0.209 0.106-0.094 0.141-0.382 0.080-0.526-0.083-0.191-0.271-0.43-0.451-0.468-0.491-0.103-0.76-0.46-1.080-0.771-0.538-0.519-1.139-0.681-2.055-0.215zM26.674 19.609l-0.012-0.075c-0.258 0-0.517-0.022-0.771 0.009-0.13 0.016-0.249 0.127-0.372 0.195 0.112 0.1 0.21 0.257 0.34 0.29 0.693 0.175 1.391 0.213 2.074-0.055 0.117-0.046 0.247-0.106 0.32-0.201 0.065-0.080 0.086-0.223 0.073-0.331-0.005-0.040-0.167-0.101-0.247-0.088-0.469 0.074-0.936 0.167-1.402 0.254l-0.002 0.001zM30.217 17.571c0.48-0.089 0.694-0.361 0.722-0.779 0.021-0.352 0.016-0.705-0.015-1.056-0.008-0.093-0.136-0.175-0.21-0.263-0.107 0.101-0.323 0.238-0.304 0.299 0.195 0.609-0.212 1.155-0.194 1.798v0.001z"></path>
<path d="M34.606 20.323c-0.028 0.014-0.139 0.108-0.259 0.12-0.11 0.013-0.27-0.024-0.337-0.101-0.341-0.386-0.672-0.783-0.977-1.199-0.080-0.109-0.113-0.401-0.067-0.426 0.15-0.083 0.443-0.17 0.508-0.098 0.386 0.427 0.725 0.897 1.074 1.357 0.034 0.046 0.024 0.125 0.059 0.346z"></path>
<path d="M18.269 23.668c0.178 0.014 0.531 0.025 0.874 0.084 0.086 0.015 0.2 0.183 0.2 0.283s-0.099 0.274-0.184 0.295c-0.668 0.166-1.332 0.207-1.924-0.241-0.033-0.031-0.059-0.070-0.076-0.112s-0.023-0.089-0.018-0.134c0.013-0.067 0.116-0.16 0.186-0.165 0.256-0.022 0.513-0.010 0.942-0.010z"></path>
<path d="M39.197 9.562l0.253 0.139c-0.072 0.129-0.116 0.336-0.22 0.373-0.481 0.177-0.974 0.319-1.476 0.423-0.144 0.028-0.354-0.114-0.487-0.231-0.154-0.136-0.062-0.431 0.132-0.461 0.569-0.088 1.142-0.155 1.799-0.242z"></path>
<path d="M22.198 26.541c0.267 0.125 0.491 0.16 0.6 0.294 0.299 0.372 0.572 0.764 0.819 1.174 0.12 0.195 0.010 0.406-0.192 0.462-0.111 0.031-0.311-0.060-0.393-0.16-0.326-0.394-0.628-0.807-0.905-1.238-0.064-0.102 0.035-0.308 0.071-0.532z"></path>
<path d="M32.679 11.018c0.017-0.114 0-0.244 0.053-0.294 0.072-0.066 0.226-0.12 0.3-0.085 0.101 0.049 0.167 0.182 0.236 0.286 0.194 0.291 0.385 0.584 0.569 0.882 0.082 0.134 0.193 0.276 0.2 0.42 0.008 0.133-0.073 0.306-0.173 0.398-0.056 0.051-0.285 0.018-0.341-0.053-0.37-0.471-0.813-0.913-0.845-1.554z"></path>
<path d="M33.828 6.010c-0.080 0.481-0.112 0.836-0.205 1.175-0.058 0.183-0.17 0.345-0.32 0.465-0.106 0.086-0.291 0.073-0.44 0.105-0.012-0.14-0.056-0.286-0.030-0.419 0.078-0.41 0.182-0.815 0.276-1.222 0.007-0.032 0.005-0.065 0.014-0.096 0.074-0.245 0.233-0.432 0.487-0.331 0.128 0.051 0.188 0.276 0.218 0.323z"></path>
<path d="M26.934 9.141c0.225 0.028 0.515 0.043 0.793 0.111 0.095 0.023 0.235 0.194 0.218 0.268-0.029 0.132-0.138 0.306-0.254 0.345-0.183 0.057-0.379 0.058-0.563 0.003-0.32-0.102-0.618-0.136-0.937-0.002-0.21 0.088-0.406-0.004-0.462-0.214-0.075-0.281 0.136-0.417 0.372-0.456 0.252-0.042 0.512-0.035 0.833-0.054z"></path>
<path d="M31.921 22.97c-0.091 0.398-0.16 0.748-0.258 1.089-0.019 0.067-0.16 0.157-0.219 0.142-0.106-0.026-0.256-0.11-0.278-0.198-0.048-0.189-0.053-0.386-0.016-0.577 0.075-0.35 0.149-0.682 0.008-1.039-0.067-0.171-0.048-0.445 0.211-0.444 0.14 0 0.34 0.173 0.403 0.317 0.102 0.229 0.109 0.499 0.148 0.71z"></path>
<path d="M27.986 22.868c-0.052 0.093-0.077 0.204-0.146 0.251-0.421 0.291-0.843 0.584-1.286 0.838-0.113 0.065-0.312 0.025-0.456-0.018-0.212-0.063-0.256-0.342-0.080-0.455 0.485-0.312 0.972-0.621 1.472-0.908 0.080-0.046 0.24 0.004 0.343 0.055 0.070 0.035 0.1 0.149 0.153 0.237z"></path>
<path d="M22.621 4.155c0.068 0.040 0.197 0.075 0.214 0.139 0.167 0.618 0.328 1.238 0.461 1.864 0.037 0.174-0.192 0.27-0.346 0.167-0.483-0.327-0.785-1.536-0.503-2.042 0.029-0.050 0.1-0.075 0.173-0.128z"></path>
<path d="M28.596 5.911c-0.146-0.098-0.303-0.147-0.324-0.231-0.023-0.091 0.052-0.247 0.134-0.321 0.355-0.318 0.726-0.617 1.112-0.897 0.13-0.092 0.4-0.157 0.5-0.085 0.236 0.166 0.112 0.401-0.052 0.573-0.221 0.231-0.44 0.475-0.694 0.662-0.195 0.141-0.445 0.201-0.675 0.299z"></path>
<path d="M19.403 9.177l-0.354 0.335c-0.101-0.109-0.25-0.201-0.293-0.331-0.17-0.512-0.312-1.033-0.446-1.555-0.018-0.072 0.040-0.219 0.1-0.243 0.098-0.040 0.259-0.056 0.334 0 0.147 0.109 0.314 0.254 0.362 0.418 0.126 0.425 0.192 0.87 0.297 1.377z"></path>
<path d="M15.533 17.757c-0.324 0.596-0.571 1.207-1.175 1.533-0.102 0.055-0.326-0.015-0.435-0.102-0.185-0.147 0-0.27 0.090-0.395 0.284-0.392 0.545-0.8 0.847-1.177 0.078-0.097 0.275-0.144 0.409-0.131 0.091 0.008 0.166 0.164 0.264 0.272z"></path>
<path d="M19.196 17.808c0.169 0.098 0.292 0.128 0.315 0.192 0.038 0.106 0.057 0.272 0 0.346-0.093 0.117-0.252 0.185-0.388 0.263-0.355 0.204-0.705 0.42-1.073 0.594-0.112 0.053-0.316 0.037-0.416-0.034-0.206-0.147-0.134-0.383 0.032-0.487 0.506-0.318 1.039-0.596 1.531-0.873z"></path>
<path d="M37.53 15.106c-0.13 0.295-0.313 0.74-0.531 1.167-0.034 0.066-0.244 0.102-0.333 0.063-0.083-0.037-0.173-0.205-0.156-0.295 0.087-0.475 0.184-0.952 0.33-1.411 0.045-0.14 0.247-0.267 0.403-0.314 0.058-0.017 0.208 0.201 0.28 0.334 0.041 0.075 0.007 0.191 0.007 0.457z"></path>
<path d="M15.431 11.562c0.574 0.517 0.505 1.218 0.569 1.866 0.012 0.12-0.137 0.292-0.256 0.379-0.062 0.046-0.316-0.028-0.322-0.070-0.090-0.654-0.16-1.312-0.216-1.971-0.004-0.056 0.13-0.125 0.225-0.205z"></path>
<path d="M28.841 27.56c0.096 0.026 0.191 0.057 0.284 0.093 0.345 0.16 0.691 0.317 1.028 0.493 0.16 0.083 0.32 0.188 0.435 0.321 0.132 0.154-0.019 0.451-0.204 0.41-0.625-0.136-1.236-0.325-1.704-0.794-0.069-0.069-0.068-0.243-0.045-0.358 0.013-0.065 0.134-0.11 0.207-0.165z"></path>
<path d="M21.229 11.751c0.033 0.104 0.147 0.265 0.107 0.366-0.21 0.536-0.453 1.059-0.701 1.578-0.030 0.064-0.16 0.12-0.237 0.11-0.067-0.008-0.16-0.103-0.178-0.175-0.131-0.579 0.282-1.615 0.743-1.876 0.048-0.027 0.124-0.004 0.265-0.004z"></path>
<path d="M39.113 20.539c-0.072-0.046-0.222-0.102-0.3-0.209-0.031-0.043 0.070-0.239 0.156-0.301 0.385-0.281 0.777-0.549 1.187-0.789 0.11-0.065 0.34-0.069 0.421 0.003 0.075 0.067 0.086 0.321 0.018 0.414-0.343 0.48-0.776 0.846-1.483 0.883z"></path>
<path d="M36.737 24.67c-0.297-0.031-0.426-0.034-0.549-0.062-0.052-0.012-0.13-0.074-0.131-0.114-0.006-0.091 0.018-0.182 0.068-0.259 0.064-0.073 0.147-0.125 0.24-0.15 0.457-0.138 0.915-0.276 1.38-0.388 0.101-0.024 0.313 0.043 0.326 0.1 0.030 0.137-0.006 0.303-0.060 0.441-0.028 0.073-0.142 0.134-0.228 0.16-0.397 0.11-0.797 0.207-1.045 0.272z"></path>
<path d="M22.962 21.355c-0.033 0.14-0.086 0.45-0.189 0.742-0.026 0.073-0.226 0.142-0.318 0.116s-0.2-0.179-0.197-0.274c0.010-0.541 0.036-1.083 0.091-1.622 0.012-0.118 0.16-0.221 0.246-0.331 0.102 0.109 0.268 0.205 0.294 0.329 0.058 0.279 0.046 0.573 0.072 1.039z"></path>
<path d="M44.4 4.422c0-1.146 0.276-2.016 0.829-2.608 0.559-0.598 1.275-0.898 2.148-0.898s1.567 0.258 2.081 0.775c0.521 0.516 0.782 1.342 0.782 2.475s-0.276 1.99-0.829 2.57c-0.553 0.579-1.29 0.869-2.213 0.869-0.797 0-1.45-0.23-1.959-0.69-0.264-0.239-0.471-0.57-0.622-0.992-0.144-0.428-0.217-0.929-0.217-1.502zM47.348 1.012c-0.634 0-1.155 0.283-1.563 0.85-0.402 0.567-0.603 1.398-0.603 2.494s0.192 1.896 0.575 2.4c0.383 0.504 0.892 0.756 1.526 0.756 0.64 0 1.161-0.283 1.563-0.85 0.408-0.573 0.612-1.401 0.612-2.485 0-1.090-0.194-1.89-0.584-2.4-0.383-0.51-0.892-0.765-1.526-0.765z"></path>
<path d="M51.869 7.569h-0.782v-6.614h0.782v3.042h3.061v-3.042h0.782v6.614h-0.782v-3.477h-3.061v3.477z"></path>
<path d="M59.73 7.569h-0.123l0.819-6.614h0.311l1.978 6.113 1.969-6.113h0.311l0.819 6.614h-0.782l-0.65-5.291-1.705 5.291h-0.594l-1.724-5.225-0.631 5.225z"></path>
<path d="M71.032 0.955c0.119 0.12 0.179 0.274 0.179 0.463 0 0.157-0.035 0.318-0.104 0.482l-1.686 3.43v2.239h-0.782v-2.031l-1.884-4.582h0.801l1.799 4.261 1.639-3.316c0.069-0.157 0.104-0.321 0.104-0.491s-0.047-0.302-0.141-0.397l0.075-0.057z"></path>
<path d="M1.328 9.306c0.487-0.022 0.963-0.033 1.427-0.033 0.476 0 0.974 0.050 1.494 0.15 0.531 0.1 1.051 0.289 1.56 0.566 0.52 0.266 0.957 0.616 1.311 1.049 0.365 0.422 0.658 0.982 0.88 1.682s0.332 1.548 0.332 2.547c0 0.999-0.166 1.898-0.498 2.697-0.321 0.788-0.763 1.393-1.328 1.815-1.095 0.821-2.418 1.232-3.967 1.232-0.542 0-1.112-0.022-1.71-0.067h-0.83v-11.638h1.328zM1.378 20.811c0.232 0.022 0.526 0.033 0.88 0.033s0.62-0.006 0.797-0.017c0.177-0.011 0.42-0.055 0.73-0.133 0.31-0.089 0.598-0.205 0.863-0.35s0.542-0.355 0.83-0.633c0.299-0.289 0.553-0.627 0.763-1.016 0.476-0.91 0.714-2.098 0.714-3.563 0-1.043-0.127-1.942-0.382-2.697-0.255-0.766-0.548-1.332-0.88-1.698-0.321-0.366-0.714-0.655-1.178-0.866-0.465-0.222-0.835-0.35-1.112-0.383s-0.598-0.050-0.963-0.050c-0.365 0-0.719 0.017-1.062 0.050v11.321z"></path>
<path d="M44.67 20.944h-0.216v-11.654h0.564l6.905 10.772v-10.772h0.216v11.654h-1.212l-6.258-9.656v9.656z"></path>
<path d="M62.359 9.29h0.216v6.66c0 1.743-0.343 3.025-1.029 3.846-0.686 0.81-1.582 1.215-2.689 1.215-0.697 0-1.289-0.061-1.776-0.183-0.487-0.133-0.946-0.372-1.378-0.716-0.885-0.688-1.328-2.076-1.328-4.162v-6.66h1.378v6.643c0 2.020 0.304 3.369 0.913 4.046 0.31 0.333 0.631 0.561 0.963 0.683 0.343 0.122 0.752 0.183 1.228 0.183 1.062 0 1.909-0.388 2.539-1.165 0.642-0.788 0.963-2.037 0.963-3.746v-6.643z"></path>
<path d="M68.237 20.944h-1.378v-11.488h-2.871v-0.166h7.137v0.166h-2.888v11.488z"></path>
</symbol>
<symbol id="menu" viewBox="0 0 60 32">
<path d="M2 0h56c1.105 0 2 0.895 2 2s-0.895 2-2 2h-56c-1.105 0-2-0.895-2-2s0.895-2 2-2z"></path>
<path d="M2 14h56c1.105 0 2 0.895 2 2s-0.895 2-2 2h-56c-1.105 0-2-0.895-2-2s0.895-2 2-2z"></path>
<path d="M2 28h56c1.105 0 2 0.895 2 2s-0.895 2-2 2h-56c-1.105 0-2-0.895-2-2s0.895-2 2-2z"></path>
</symbol>
<symbol id="phone" viewBox="0 0 32 32">
<path d="M29.44 20.997c-1.969 0-3.889-0.295-5.711-0.911-0.886-0.295-1.994 0-2.535 0.542l-3.594 2.708c-3.908-1.958-7.007-5.041-8.932-8.822l-0.052-0.113 2.708-3.495c0.665-0.689 0.911-1.674 0.615-2.634-0.577-1.698-0.911-3.654-0.911-5.688 0-0.008 0-0.016 0-0.024v0.001c-0.025-1.403-1.157-2.56-2.585-2.56h-5.883c-1.403 0-2.56 1.157-2.56 2.56 0 16.246 13.194 29.44 29.44 29.44 1.403 0 2.56-1.157 2.56-2.56v-5.858c0-1.428-1.157-2.585-2.56-2.585z"></path>
</symbol>
<symbol id="twitter" viewBox="0 0 40 32">
<path d="M40.421 3.789c-1.516 0.64-3.099 1.061-4.783 1.28 1.718-0.99 3.017-2.545 3.655-4.406l0.017-0.057c-1.514 0.89-3.276 1.568-5.148 1.936l-0.107 0.017c-1.533-1.58-3.675-2.56-6.047-2.56-0.018 0-0.035 0-0.053 0h0.003c-0.025-0-0.055-0-0.085-0-4.521 0-8.185 3.665-8.185 8.185 0 0.615 0.068 1.214 0.196 1.79l-0.010-0.055c-6.888-0.337-12.968-3.537-17.078-8.455-0.709 1.167-1.128 2.578-1.128 4.087 0 2.805 1.449 5.271 3.64 6.69l0.031 0.019c-1.368-0.034-2.644-0.392-3.766-0.999l0.044 0.022v0.084c0 3.924 2.863 7.192 6.636 7.933-0.65 0.179-1.397 0.282-2.167 0.282-0.556 0-1.099-0.054-1.625-0.156l0.053 0.009c1.144 3.259 4.169 5.565 7.74 5.625l0.007 0c-2.807 2.147-6.367 3.44-10.229 3.44-0.716 0-1.422-0.044-2.115-0.131l0.083 0.008c3.58 2.272 7.939 3.621 12.614 3.621 0.036 0 0.071-0 0.107-0l-0.005 0c0.136 0.003 0.296 0.005 0.456 0.005 12.762 0 23.107-10.346 23.107-23.107 0-0.321-0.007-0.641-0.020-0.96l0.001 0.046c1.642-1.154 3.023-2.551 4.124-4.155l0.036-0.055z"></path>
</symbol>
<symbol id="two-peoples" viewBox="0 0 35 32">
<path d="M11.847 0c-3.678 0-6.674 2.996-6.674 6.674s2.996 6.674 6.674 6.674c3.678 0 6.674-2.996 6.674-6.674s-2.996-6.674-6.674-6.674zM11.847 12.229c-3.071 0-5.562-2.498-5.562-5.562s2.498-5.562 5.562-5.562c3.071 0 5.562 2.498 5.562 5.562s-2.498 5.562-5.562 5.562z"></path>
<path d="M25.516 2.771c-2.764 0-5.009 2.245-5.009 5.009s2.245 5.009 5.009 5.009c2.764 0 5.009-2.245 5.009-5.009s-2.245-5.009-5.009-5.009zM25.516 11.683c-2.15 0-3.897-1.747-3.897-3.897s1.747-3.897 3.897-3.897c2.15 0 3.897 1.747 3.897 3.897s-1.747 3.897-3.897 3.897z"></path>
<path d="M34.476 20.131c-0.505-3.044-2.395-5.609-5.616-6.954 0 0-1.426 1.078-3.344 1.044-2.095-0.041-3.344-1.044-3.344-1.044s-1.556 0.58-2.811 1.788c-1.16-1.030-3.119-1.87-3.119-1.87s-1.795 1.365-4.402 1.344c-2.736-0.020-4.388-1.344-4.388-1.344s-5.916 2.034-7.165 8.933c0 0-1.338 3.658 1.761 9.124h19.606c0 0 1.392-2.423 1.638-3.897h9.752c2.395-3.63 1.433-7.124 1.433-7.124zM20.964 30.040h-18.227c-2.382-4.524-1.351-7.827-1.351-7.827 0.58-3.46 2.805-6.381 5.985-7.861 2.73 1.604 6.23 1.604 8.96 0 3.18 1.481 5.405 4.401 5.985 7.861-0.007 0 0.983 4.067-1.351 7.827zM32.394 26.143h-8.878c0.341-1.965-0.109-4.115-0.109-4.115-0.403-2.429-1.549-4.62-3.228-6.312 0.573-0.519 1.208-0.949 1.904-1.283 2.095 1.201 4.763 1.201 6.858 0 2.354 1.126 4.006 3.303 4.436 5.882 0 0 0.812 2.757-0.983 5.828z"></path>
</symbol>
</defs>
</svg>
