<svg aria-hidden="true" style="position: absolute; width: 0; height: 0; overflow: hidden;" version="1.1" xmlns="http://www.w3.org/2000/svg" xmlns:xlink="http://www.w3.org/1999/xlink">
<defs>
<symbol id="icon-back" viewBox="0 0 28 32">
<path fill="#fef3e4" style="fill: var(--color1, #fef3e4)" d="M1.393 8.16c0.292 1.653-0.811 1.519-1.398 1.246v20.302c0 3.967-0.279 2.248 0 3.365 0.17 0.678 1.094-2.606 0.851-3.365s-0.182-2.188 0.882-2.492c1.064-0.304 1.216-1.003 1.763-1.884s1.945-2.614 5.35-1.277c3.404 1.337 5.654 0.122 7.265-1.094 3.191-2.408 8.605 0.012 10.109 2.075 0.789 1.083-1.364 6.619 0 7.135 0.681 0.258 1.289 4.998 1.289-0.258v-24.087c-0.020 0.223-0.17 0.602-0.608 0.334-1.289-0.657-0.76-2.664-0.334-3.586 0.233-0.882 0.31-2.948-1.246-4.164-1.83-1.43-7.216 1.337-10.341 1.337-3.414 0-5.070-0.79-7.107-1.519s-3.648 0.516-4.286 1.519-0.669 1.398-1.641 1.854c-1.915 0.699-0.912 2.492-0.547 4.559z"></path>
</symbol>
</defs>
</svg>
