<svg width="1280" height="1497" fill="none" xmlns="http://www.w3.org/2000/svg"><path d="M65.06 379.75C78.64 456.68 27.34 450.46 0 437.73v944.66C0 1567-13 1487 0 1539c7.89 31.56 50.92-121.25 39.6-156.61-11.31-35.35-8.48-101.82 41.02-115.96s56.57-46.67 82.03-87.68c25.46-41.01 90.52-121.61 248.93-59.39 158.4 62.22 263.07 5.66 338.03-50.91C898.12 956.38 1150 1069 1220 1165c36.73 50.38-63.47 307.98 0 332 31.71 12 60 232.57 60-12V364.2c-.94 10.37-7.92 28-28.29 15.55-59.97-30.54-35.36-123.97-15.56-166.87 10.85-41.01 14.43-137.17-57.98-193.74C1093-47.39 842.39 81.36 697 81.36c-158.84 0-235.92-36.76-330.68-70.7C271.56-23.28 196.6 34.7 166.9 81.36c-29.7 46.67-31.12 65.06-76.38 86.27-89.1 32.52-42.43 115.96-25.46 212.12z" fill="#FEF3E4"/></svg>