<svg width="320" height="1215" fill="none" xmlns="http://www.w3.org/2000/svg"><path d="M14.85 95.5c3.42 19.35-9.5 17.79-16.4 14.59v237.6c0 46.44-3.27 852.82 0 865.9 2 7.93 19.25-32.94 16.4-41.83-2.85-8.89-8.55-41.41 3.92-44.96 12.47-3.56 14.26-11.74 20.67-22.06 6.42-10.31 22.81-30.59 62.73-14.93 39.92 15.65 66.29 1.42 85.18-12.81 37.42-28.19 100.9.14 118.53 24.29 9.26 12.67-16 75.3 0 81.35 8 3.01 15.12 58.49 15.12-3.02V91.59c-.24 2.6-2 7.04-7.13 3.91-15.1-7.68-8.9-31.18-3.92-41.97 2.73-10.31 3.64-34.5-14.61-48.73-21.46-16.73-84.61 15.65-121.25 15.65-40.02 0-59.45-9.25-83.33-17.78C66.9-5.87 48 8.7 40.51 20.45c-7.48 11.74-7.84 16.36-19.24 21.7-22.46 8.18-10.7 29.17-6.42 53.35z" fill="#FEF3E4"/></svg>