<svg width="320" height="461" viewBox="0 0 320 461" fill="none" xmlns="http://www.w3.org/2000/svg">
<path d="M12.8728 447.894C12.8728 453.635 4.95585 460.736 0 460.5V0.900269H319.944V85.1491C320.069 135.449 319.944 433.54 319.944 442.652C319.944 448.362 311.219 445.957 304.139 436.768C297.059 427.579 310.156 398.243 311.218 389.761C312.28 381.279 309.095 363.607 276.174 342.047C243.253 320.488 195.11 339.573 169.623 352.297C144.136 365.02 122.471 347.349 87.7802 336.746C53.0893 326.142 40.3456 343.107 35.7438 352.297C31.1419 361.486 31.2132 386.227 21.3015 389.761C11.3898 393.295 7.49591 402.838 9.97383 416.622C12.4518 430.406 12.8728 440.472 12.8728 447.894Z" fill="#FEF3E4"/>
</svg>
