<svg width="1280" height="1489" fill="none" xmlns="http://www.w3.org/2000/svg"><path d="M64.84 379.7c13.58 76.93-37.72 70.7-65.06 57.98v944.66c0 184.6-13 104.6 0 156.6 7.89 31.56 50.91-121.25 39.6-156.6-11.31-35.36-8.49-101.82 41.02-115.96 49.5-14.15 56.57-46.67 82.03-87.68 25.46-41.01 90.52-121.62 248.93-59.4 158.4 62.23 263.07 5.66 338.03-50.91 148.5-112.06 400.39.55 470.39 96.55 36.73 50.38-63.48 307.99 0 332 31.71 12 60 232.57 60-12V364.14c-.95 10.37-7.92 28-28.29 15.56-59.97-30.55-35.36-123.98-15.56-166.87 10.85-41.02 14.43-137.18-57.99-193.74-85.16-66.53-335.78 62.22-481.16 62.22-158.84 0-235.92-36.77-330.68-70.7-94.76-33.95-169.73 24.03-199.43 70.7-29.7 46.67-31.11 65.05-76.37 86.26C1.2 200.1 47.87 283.53 64.84 379.7z" fill="#FEF3E4"/></svg>