<?xml version="1.0" encoding="utf-8"?>
<!-- Generator: Adobe Illustrator 24.1.2, SVG Export Plug-In . SVG Version: 6.00 Build 0)  -->
<svg version="1.1" id="Шар_1" xmlns="http://www.w3.org/2000/svg" xmlns:xlink="http://www.w3.org/1999/xlink" x="0px" y="0px"
	 viewBox="0 0 2023 1036" style="enable-background:new 0 0 2023 1036;" xml:space="preserve">
<style type="text/css">
	.st0{fill:#FEF3E4;}
</style>
<path class="st0" d="M1983,272.2c0,59.9-109.2,104.5-36.4,201.9c72.8,97.4,0,109.2-23.5,209s-49.7,5.1-49.7,5.1
	c1.6-125.2-71.2-65-71.2-65s-9.9,150.3-9.4,179.5c0.5,29.2-28.2,56.9-40.7-10.4s56.3-123.7-40.7-220.7s-25,114.7-25,114.7l-35,277.8
	c0,22.9-34.9,13.2-63.2-23.6c-28.3-36.8,24.1-154.3,28.3-188.3s-8.5-104.8-140.2-191.1c-131.7-86.4-324.3-9.9-426.3,41.1
	c-102,51-188.6-19.8-327.4-62.3S532.9,565.2,514.5,602c-18.4,36.8-18.1,135.9-57.8,150.1s-55.2,52.4-45.3,107.6
	c9.9,55.2,11.6,95.5,11.6,125.3c0,23-31.7,51.4-51.5,50.5c0,0-83.6,24.4-47.2-210.4s-44.6-221.9-58.7-218.3
	c-14.1,3.5-44.9,35.2-44.9,35.2s-63.1,95.1-37.3,219.5s-83.3,118.6-83.3,58.7s37.6-102.1,0-266.5S32,539.9,61.3,352
	S86,120.8,67.2,77.3S0,0,0,0h2023C2023,0,1983,212.3,1983,272.2z"/>
<path class="st0" d="M220.7,0h150.8h1280h150.8"/>
<path class="st0" d="M216.6,831.3c0,0,27.7,47,63.7,0s-31.8-51.7-31.8-51.7S205.1,774.4,216.6,831.3z"/>
<path class="st0" d="M290.8,885.1c0,0-19.3-14.1-17.2,8.9s14.6,3.7,14.6,3.7S294.4,892.4,290.8,885.1z"/>
<path class="st0" d="M1925.1,794.7l-3.3-2.4c-1.7-1.2-3.5-2.1-5.5-2.6c-5-1.2-14.7-2.7-22.8,1c-11.5,5.2-9.9-0.8-19.8,14.2
	c-7.1,10.7-4,18.6-1.7,22.2c1.3,2,2.1,4.3,2.5,6.7c3.1,18.3,14.3,87.7,10.7,126.5c-4.2,44.9,11.1,0,11.1,0s-7.7-134.6,0-128.3
	s13.9,48,24.9,8.3S1925.1,794.7,1925.1,794.7z"/>
</svg>
