<?xml version="1.0" encoding="utf-8"?>
<!-- Generator: Adobe Illustrator 24.1.2, SVG Export Plug-In . SVG Version: 6.00 Build 0)  -->
<svg version="1.1" id="Шар_1" xmlns="http://www.w3.org/2000/svg" xmlns:xlink="http://www.w3.org/1999/xlink" x="0px" y="0px"
	 viewBox="0 0 1600.3 1497" style="enable-background:new 0 0 1600.3 1497;" xml:space="preserve">
<style type="text/css">
	.st0{fill:#FEF3E4;}
</style>
<path class="st0" d="M1504.1,1001.3c3.7-13,22.8-11.1,23.9,2.4c3.5,45,7.8,109.1,9.8,179.2c3.7,127.1,21,7.9,22.6-3.1
	c0.1-0.5,0.1-1,0.1-1.6l5.5-531.7c0-1.3,0.2-2.7,0.7-3.9c2.1-5.9,3.5-8.9,3.9-10.1c1.9-5,66.3-253-16.7-297.4
	c-74.7-39.9-107.1,15.7-112.8,27.1c-0.6,1.2-0.9,2.4-1.1,3.7c-1.5,10.4-8.8,25.6-28.1,13.8c-59.5-30.3-35.7-122.6-16-165.9
	c0.3-0.6,0.5-1.3,0.7-2c10.6-41.6,13.6-136.6-58.2-192.7c-85.2-66.5-335.8,62.2-481.2,62.2c-158.8,0-235.9-36.8-330.7-70.7
	s-169.7,24-199.4,70.7c-29.6,46.5-31.1,64.9-75.9,86c-0.3,0.1-0.6,0.3-1,0.4c-88.4,32.6-41.9,116-25,211.9
	c13.6,76.9-37.7,70.7-65.1,58c0,0-211.1-100-106.3,158.2s39.1,425,32.1,454.7c-7,29.7,0.8,335.7,36.8,408.5s37.4,79.8,37.4,79.8
	c7.9,31.6,50.9-121.3,39.6-156.6c-11.3-35.3-8.5-101.8,41-116s56.6-46.7,82-87.7s90.5-121.6,248.9-59.4
	c158.4,62.2,263.1,5.7,338-50.9c148.5-112.1,400.4,0.6,470.4,96.6c36.7,50.4-63.5,308,0,332c31.7,12,60,243.9,60.1,1
	c0-0.7,0.1-1.4,0.2-2.1c2.5-14.3,30.2-176.1,30.7-221.5c3.4-305.6,22.5-204.5,28.8-258.6c0.1-0.7,0.2-1.3,0.4-1.9L1504.1,1001.3z"/>
</svg>
