<?xml version="1.0" encoding="utf-8"?>
<!-- Generator: Adobe Illustrator 24.1.2, SVG Export Plug-In . SVG Version: 6.00 Build 0)  -->
<svg version="1.1" id="Шар_1" xmlns="http://www.w3.org/2000/svg" xmlns:xlink="http://www.w3.org/1999/xlink" x="0px" y="0px"
	 viewBox="0 0 1323.3 1497" style="enable-background:new 0 0 1323.3 1497;" xml:space="preserve">
<style type="text/css">
	.st0{fill:#FEF3E4;}
</style>
<path class="st0" d="M86.7,379.8c6.9,38.9-2.4,72.3-16.8,94.2C41.8,516.5,28.6,567.1,32.5,618l3,39.3c0.7,9.7,0.6,19.4-0.5,29
	l-6.3,56.3c-0.4,3.9-0.7,7.8-0.7,11.7l-0.6,62.4c-0.1,9.3-0.9,18.6-2.4,27.8L6,963.3c-5.5,34.2-2.7,69.3,8.3,102.2l20.7,62.1
	c2.2,6.6,3.1,13.5,2.6,20.4l-15.8,232.7c-0.1,1.2-0.1,2.4-0.1,3.6c-0.1,182.3-13,103,0,154.8c7.9,31.6,50.9-121.3,39.6-156.6
	c-11.3-35.3-8.5-101.8,41-116s56.6-46.7,82-87.7s90.5-121.6,248.9-59.4c158.4,62.2,263.1,5.7,338-50.9
	c148.5-112.1,400.4,0.6,470.4,96.6c36.7,50.4-63.5,308,0,332c31.7,12,60,232.6,60-12l-7.3-314.6c-0.3-12.8-1.4-25.5-3.2-38.2
	l-18.8-127.7c-2.8-18.7-2.4-37.8,1-56.4l13-70.9c2-10.7,2.9-21.5,2.7-32.4l-0.7-39.7c-0.2-10.4-1.1-20.7-2.8-30.9l-14.9-90.2
	c-4.7-28.6-1.9-57.8,8.1-85l3.2-8.6c8.7-23.6,13.8-48.4,15.1-73.6l4.6-90.4c0-19.2-10.6-36.6-27.2-46.1c-0.4-0.2-0.7-0.4-1.1-0.6
	c-58.1-29.6-36.8-118.2-17.4-162.7c1.3-3.1,2.4-6.3,3.2-9.6c9.7-43.5,10.1-134.1-59.3-188.3C1114.7-47.4,864,81.4,718.7,81.4
	c-158.8,0-235.9-36.8-330.7-70.7s-169.7,24-199.4,70.7c-29.3,46-31.1,64.5-74.4,85.3c-1.3,0.6-2.7,1.2-4.1,1.7
	C23.8,201.5,69.9,284.4,86.7,379.8z"/>
</svg>
