<?xml version="1.0" encoding="utf-8"?>
<!-- Generator: Adobe Illustrator 24.1.2, SVG Export Plug-In . SVG Version: 6.00 Build 0)  -->
<svg version="1.1" id="Шар_1" xmlns="http://www.w3.org/2000/svg" xmlns:xlink="http://www.w3.org/1999/xlink" x="0px" y="0px"
	 viewBox="0 0 1431.1 1035.5" style="enable-background:new 0 0 1431.1 1035.5;" xml:space="preserve">
<style type="text/css">
	.st0{fill:#FEF3E4;}
</style>
<path class="st0" d="M126.9,985c0,22.3-22.8,49.7-42.7,50.5c-1.2,0-1.3,1.1-9.1-1.8c-1.4-0.5-6.5-7.5-6.8-7.9
	c-20.1-25.1-24.6-49.5-22-81.5l1.6-19.4c1.2-14.8,3.4-29.5,6.7-44l11.2-50.2c3.1-13.9,5-28.1,5.8-42.4l2.6-50.9
	c0.8-15.9-0.2-31.9-3-47.6l-8.6-48.1c-7.8-43.6-3.1-88.5,13.7-129.5L90.7,477c23.2-56.8,23.4-120.4,0.5-177.4l-25.6-63.7
	C45.6,186.4,37.3,133,41.2,79.9L47,0h1344.1l-9.4,58.6l-26.3,143.2l0.2-17.6c0,9.5-16.2,175.2-16.1,185.5
	c0.1,68,79.8,97.7,79.8,180.8c0,92.4-19.9,202.9-20,271.2c0,18.2-8.2,75.9-8.2,90.4c0,31.4-27,45.5-27,52.8
	c0,22.9-43.6,12.4-72-24.4c-28.3-36.8,24.1-154.3,28.3-188.3S1312,647.3,1180.3,561C1048.6,474.6,856,551.1,754,602
	c-102,51-188.6-19.8-327.4-62.3S236.8,565.2,218.4,602S200.3,738,160.6,752.1s-55.2,52.4-45.3,107.6
	C125.2,914.9,126.9,955.3,126.9,985z"/>
</svg>
