<?xml version="1.0" encoding="utf-8"?>
<!-- Generator: Adobe Illustrator 24.1.2, SVG Export Plug-In . SVG Version: 6.00 Build 0)  -->
<svg version="1.1" id="Шар_1" xmlns="http://www.w3.org/2000/svg" xmlns:xlink="http://www.w3.org/1999/xlink" x="0px" y="0px"
	 viewBox="0 0 550 461" style="enable-background:new 0 0 550 461;" xml:space="preserve">
<style type="text/css">
	.st0{fill:#FEF3E4;}
</style>
<path class="st0" d="M127.9,447.9c0,5.7-15.6,6.7-20.6,6.5l-27.4-2.8c-11.7-1.2-21.9-8.3-27.1-18.9l-1.3-2.7
	c-7.1-14.4-11.6-30-13.3-46l-1.9-17.9c-1.6-15.2-1.7-30.5-0.1-45.7l0.9-8.6c2.5-23.5-0.9-47.3-9.8-69.2l-8.3-20.3
	c-3.7-9-5.7-18.5-6.2-28.2l-0.1-2.1c-1.1-23.6,1.9-47.2,8.7-69.8l1.3-4.4C26.3,90,23.1,62,13.3,36L0,0.9h550l-24.2,80.3
	c-3,9.9-5.4,19.9-7.3,30l-5.2,27.8c-6.1,32.3-5.6,65.5,1.3,97.7c3.6,16.9,6.8,35.7,6.8,53.4c0,48.7-21.9,55.8-21.9,106.4
	c0,35.5,2.3,26.3-13.3,45.4c-8.6,10.5-28.2-1.8-51.1,0.8c-5.7,0.6-8.7,3.3-15.8-5.9c-7.1-9.2,6-38.5,7.1-47
	c1.1-8.5-2.1-26.2-35-47.7c-32.9-21.6-81.1-2.5-106.6,10.3c-25.5,12.7-47.2-4.9-81.8-15.6c-34.7-10.6-47.4,6.4-52,15.6
	c-4.6,9.2-4.5,33.9-14.4,37.5c-9.9,3.5-13.8,13.1-11.3,26.9C127.5,430.4,127.9,440.5,127.9,447.9z"/>
</svg>
