<?xml version="1.0" encoding="utf-8"?>
<!-- Generator: Adobe Illustrator 24.1.2, SVG Export Plug-In . SVG Version: 6.00 Build 0)  -->
<svg version="1.1" id="Шар_1" xmlns="http://www.w3.org/2000/svg" xmlns:xlink="http://www.w3.org/1999/xlink" x="0px" y="0px"
	 viewBox="0 0 766 461" style="enable-background:new 0 0 766 461;" xml:space="preserve">
<style type="text/css">
	.st0{fill:#FEF3E4;}
</style>
<path class="st0" d="M223,0.9h319.9"/>
<path class="st0" d="M766,0c0,0-12.3,0.5-6.8,19.3s-0.8,133-11.7,88.4c-11-44.6-4.7,61.8-7,162c-2.3,100.2-49.3-9.4-54.8-39
	s-29-28.3-36,94.6c-7,122.9-11,25-16.4-11.7s-93.1-34.4-66.5,54c26.6,88.4-23.8,75.1-23.8,75.1c0,5.7-8.7,3.3-15.8-5.9
	c-7.1-9.2,6-38.5,7.1-47c1.1-8.5-2.1-26.2-35-47.7c-32.9-21.6-81.1-2.5-106.6,10.3c-25.5,12.7-47.2-4.9-81.8-15.6
	c-34.7-10.6-47.4,6.4-52,15.6c-4.6,9.2-4.5,33.9-14.4,37.5c-9.9,3.5-13.8,13.1-11.3,26.9c2.5,13.8,2.9,23.8,2.9,31.3
	c0,5.7-7.9,12.8-12.9,12.6c0,0-16.3,20.5-11.6-86.7c4.7-107.2-79-144.8-102.5-80.6S83,517,72.1,426.2S92.4,211,61.9,206.3
	c-30.5-4.7-7,27.4-14.1,37.6c-7,10.2-29.7,5.5-19.6-24.3s30.5-92.3,17.2-108.8S17.3,50.6,33.7,16.1S1.5,22.5,0,0.9"/>
<path class="st0" d="M733.2,324.3c-0.2-0.1-0.3-0.2-0.5-0.3c-1.5-0.8-7.6-3.4-8.6,4.6c-0.8,6.9,5.4,6,8.4,5.1
	c1.1-0.3,1.9-1.1,2.3-2.1C735.6,329.7,736.1,326.5,733.2,324.3z"/>
<path class="st0" d="M610.4,346c1.7-0.6,3.1-1.7,4-3.1c3.4-5.2,9.8-18.3-2.6-29.3c-13.7-12.2-23.5,3.4-25.9,7.8
	c-0.4,0.7-0.6,1.4-0.8,2.2C584,329.3,580,356.3,610.4,346z"/>
<path class="st0" d="M180.8,305.9c0,0,13.8,25.2,0,52.6C166.9,385.9,165.4,269.3,180.8,305.9z"/>
<path class="st0" d="M687.7,293.9c0,0-16.7-9.2-18,11.3c-1.3,20.5,9.6-13.8,5.8,70.2c0,0,3.8,15.5,13.8,0
	c10-15.5-23.8-50.5-3.3-61.4C706.5,303.1,687.7,293.9,687.7,293.9z"/>
</svg>
