<?xml version="1.0" encoding="utf-8"?>
<!-- Generator: Adobe Illustrator 24.1.2, SVG Export Plug-In . SVG Version: 6.00 Build 0)  -->
<svg version="1.1" id="Шар_1" xmlns="http://www.w3.org/2000/svg" xmlns:xlink="http://www.w3.org/1999/xlink" x="0px" y="0px"
	 viewBox="0 0 550.9 1215" style="enable-background:new 0 0 550.9 1215;" xml:space="preserve">
<style type="text/css">
	.st0{fill:#FEF3E4;}
</style>
<path class="st0" d="M130.3,95.5c1.8,10.3-1,14.7-5,16c-6.6,2.2-84.8,23.1-86.6,102.4l8.9,122.5c0.9,11.8,0.3,23.8-1.8,35.5
	l-10.2,58.9c-4.9,28.5-5.8,57.5-2.5,86.2c3.4,29,17.5,88.1,17.3,168.5c-0.3,121.1,7.3,211.9,7.3,324c0,119.5,3.7,205.4,42.8,205
	c2,7.9,32.7-34,29.9-42.8c-2.9-8.9-8.6-41.4,3.9-45c12.5-3.6,14.3-11.7,20.7-22.1c6.4-10.3,22.8-30.6,62.7-14.9
	c39.9,15.7,66.3,1.4,85.2-12.8c37.4-28.2,100.9,0.1,118.5,24.3c9.3,12.7-16,75.3,0,81.3c8,3,74.1,60.6,74.1-0.9l7.2-141.5
	c0.4-8.3-0.3-16.6-2-24.6l-5.9-27.5c-4.1-18.9-5.3-38.2-3.5-57.4c1.4-14.8,5.8-32.2,10-46.2c5.6-18.7,8.1-38.3,7.4-57.8l-4.7-131.3
	c-0.1-1.1,3-40-5.9-68.3c-3.3-10.5-4.3-21.5-2.5-32.3l14.5-89.7c5-19.1,7.5-38.7,7.5-58.4c0-36.1,0-95.1-0.1-122.1
	c0-9.3-0.6-18.6-1.6-27.8l-8.7-75.5c-1.2-10.1-1.2-20.4,0.2-30.5c8.7-66.7-56.8-79.9-60.1-85.7c-0.3-0.5-8.9-7.5-12-9.9
	c-0.6-0.5-1.3-0.9-2-1.3c-13.7-7.9-12.5-28.5-8-39.4c0.3-0.8,0.6-1.6,0.8-2.4c2.4-10.9,2.6-33.7-14.9-47.4
	c-21.5-16.7-84.6,15.6-121.3,15.6c-40,0-59.4-9.3-83.3-17.8c-23.9-8.5-42.8,6-50.3,17.8c-7.3,11.5-7.8,16.2-18.6,21.4
	c-0.4,0.2-0.9,0.4-1.4,0.6C114.5,50.8,126.1,71.6,130.3,95.5z"/>
</svg>
