<?xml version="1.0" encoding="utf-8"?>
<!-- Generator: Adobe Illustrator 24.1.2, SVG Export Plug-In . SVG Version: 6.00 Build 0)  -->
<svg version="1.1" id="Шар_1" xmlns="http://www.w3.org/2000/svg" xmlns:xlink="http://www.w3.org/1999/xlink" x="0px" y="0px"
	 viewBox="0 0 766.5 1215" style="enable-background:new 0 0 766.5 1215;" xml:space="preserve">
<style type="text/css">
	.st0{fill:#FEF3E4;}
</style>
<path class="st0" d="M703.1,757.8C764.2,624,670,494.1,670,494.1c-21.4-43.3,40.7-207.1,68.3-216.5s6.5-142.7,0-162.5
	s-54,1-56.3-14.9s-14.1-3.4-16.7,12.5c-2.6,15.9-24,24-59-28.7c-33.3-50.1-59.4,2-61.9,7.2c-0.1,0.3-0.2,0.6-0.2,0.8
	c-0.4,2.6-2.2,6.4-7.1,3.5c-15-7.6-9-30.9-4-41.8c0.1-0.1,0.1-0.3,0.2-0.4c2.7-10.4,3.4-34.4-14.7-48.5
	C497.1-11.9,434,20.4,397.4,20.4c-40,0-59.4-9.3-83.3-17.8c-23.9-8.5-42.8,6-50.3,17.8c-7.5,11.7-7.8,16.3-19.1,21.7
	c-0.1,0-0.1,0.1-0.2,0.1c-22.3,8.2-10.6,29.2-6.3,53.3c3.4,19-9.1,17.8-16,14.8c-0.2-0.1-0.5-0.3-0.7-0.4c-24.6-21-41.1,4-44.2,16.4
	c-3.1,12.5-57.9,7.8-44.6-20.3s-13.3-31.3-47-19.6s12.5,12.5-34.4,47.7S5,246,74.7,364.2S70,538.7,77.8,683.5S27.7,815,53.6,899.5
	s-11,168.3-11,206.6c0,38.3,41.5,32.1,39.9-10.6c-1.6-42.7,9.4-70.8,26.6-107.6c17.2-36.8,72,17.2,72.8,128.3
	c0.7,97.4,30.8,98.8,38.2,97.7c0.8-0.1,1.5,0.2,2.2,0.6c3.5,2,18.5-34.4,15.9-42.8c-2.9-8.9-8.6-41.4,3.9-45
	c12.5-3.6,14.3-11.7,20.7-22.1c6.4-10.3,22.8-30.6,62.7-14.9c39.9,15.7,66.3,1.4,85.2-12.8c37.4-28.2,100.9,0.1,118.5,24.3
	c9.3,12.7-16,75.3,0,81.3c8,3,15.1,58.1,15.1-2.4c0-0.3,0-0.6-0.1-0.8c-2.5-6,25.1-59.8,23.1-67c-2.1-7.3-11.2-139,11.5-55.8
	c22.7,83.2,48.5-4,42.3-27.1c-6.3-23.1,46.2-77.5,52.8-56c6.7,21.5-11.3,74.3-8.2,119.7c3.1,45.4,52.4-1.2,38.3-14.5
	c-12.1-11.4,10.1-75,4.6-96.3c-5.4-20.7,10.4-44.9,11.1-47.1C749.7,836.9,642.1,891.7,703.1,757.8z"/>
<path class="st0" d="M672.6,1136.1c0,0-17.7-6.8-27.7,6.5c-9.9,13.3-5.5,31.3-5.5,31.3s24.3,25.6,40.7-1.6
	C696.6,1145.2,672.6,1136.1,672.6,1136.1z"/>
<path class="st0" d="M43,409.4c-1.4-5.2-8.5-5.9-11-1.2c-7.5,14.4-18.2,41.4-6.3,62.1c17,29.7,20.9,20.6,20.9,20.6
	S50.5,436.4,43,409.4z"/>
</svg>
