<?xml version="1.0" encoding="utf-8"?>
<!-- Generator: Adobe Illustrator 24.1.2, SVG Export Plug-In . SVG Version: 6.00 Build 0)  -->
<svg version="1.1" id="Шар_1" xmlns="http://www.w3.org/2000/svg" xmlns:xlink="http://www.w3.org/1999/xlink" x="0px" y="0px"
	 viewBox="0 0 891.3 1260" style="enable-background:new 0 0 891.3 1260;" xml:space="preserve">
<style type="text/css">
	.st0{fill:#FEF3E4;}
</style>
<path class="st0" d="M99.2,228.3c2.7,15.2,1.2,25-2.7,31c-22.8,35.9-49.7,70.2-49.7,112.7l-4.2,130.8c-0.3,10.8-2.4,21.5-6.2,31.7
	l-2.5,6.8c-4.7,12.7-5.2,26.4-1.7,39.3c2.2,8,3.4,16.3,3.5,24.7l0.1,30.2c0,4.1,0.5,8.2,1.2,12.3c0,0.3,0.1,0.7,0.1,1l11.3,86.3
	l4.7,89.2c0,46.6-14.7,111.8-15.7,187.8c-0.9,65.3-0.7,140.8,0,184.7c0.5,26.8,20.9,53.7,22.6,60.6c4.8,19,45.9-78.7,39.1-100
	c-6.8-21.3-20.4-99,9.4-107.5s34-28.1,49.3-52.7c15.3-24.7,54.4-73.1,149.6-35.7C402.8,999,465.7,965,510.8,931
	c89.3-67.4,240.7,0.3,282.8,58.1c22.1,30.3-38.2,180.1,0,194.5c19.1,7.2,56.2,137,56.2-10.1l6.3-153.4l-9.8-156.9
	c-0.8-12.2,0.7-24.4,4.4-36l1.4-4.3c2.6-8.2,3-17,1-25.4l-0.3-1.2c-2-8.4-3.2-16.9-3.6-25.5l-10.3-206.2v-67.3
	c0-17.7,1.8-35.4,5.3-52.7l5.3-25.9c4.3-21.1,4.4-42.9,0.2-64.1l-20.1-101.3c0-10.3-6-19.4-15.2-24c-0.6-0.3-1.2-0.6-1.8-1
	c-36.1-18.4-21.3-74.6-9.4-100.3c6.5-24.7,8.7-82.5-34.9-116.5c-51.2-40-201.9,37.4-289.3,37.4c-95.5,0-141.8-22.1-198.8-42.5
	c-57-20.4-102.1,14.5-119.9,42.5C142.6,77,141.8,88,114.5,100.8C61,120.3,89,170.5,99.2,228.3L99.2,228.3z"/>
</svg>
