<svg width="768" height="1260" fill="none" xmlns="http://www.w3.org/2000/svg"><path d="M37.59 228.34c8.16 46.26-22.68 42.52-39.12 34.86V831.3c0 111.01-7.81 395 0 426.27 4.75 18.98 45.92-78.74 39.12-100-6.8-21.26-20.41-99 9.35-107.5 29.76-8.5 34.01-28.06 49.32-52.73 15.3-24.66 54.42-73.13 149.65-35.72 95.24 37.42 158.16 3.4 203.22-30.61 89.29-67.4 240.72.33 282.8 58.06 22.08 30.3-38.16 180.06 0 194.5 19.06 7.22 36.07 139.86 36.07-7.21V218.98c-.57 6.24-4.76 16.84-17 9.36-36.06-18.37-21.26-74.56-9.36-100.35 6.52-24.67 8.67-82.5-34.86-116.51-51.2-40-201.87 37.42-289.27 37.42-95.5 0-141.84-22.11-198.8-42.52C161.72-14.04 116.66 20.83 98.8 48.9c-17.86 28.06-18.7 39.12-45.92 51.87-53.57 19.56-25.5 69.74-15.3 127.57z" fill="#FEF3E4"/></svg>