<?xml version="1.0" encoding="utf-8"?>
<!-- Generator: Adobe Illustrator 24.1.2, SVG Export Plug-In . SVG Version: 6.00 Build 0)  -->
<svg version="1.1" id="Шар_1" xmlns="http://www.w3.org/2000/svg" xmlns:xlink="http://www.w3.org/1999/xlink" x="0px" y="0px"
	 viewBox="0 0 880 622" style="enable-background:new 0 0 880 622;" xml:space="preserve">
<style type="text/css">
	.st0{fill:#FEF3E4;}
</style>
<path class="st0" d="M85.9,591.7c0,9.5-9,20.5-18.5,26.3C62,621.3,55,617.4,55,611l0-26V485v-3.7c0-0.6,0.4-13,0.4-13.6
	c0.2-3.3,4.9-18.9,2.5-25.5c-1.4-3.7-2.6-7.4-3.3-11.3L35,327.4c-0.1-0.8-0.4-1.6-0.6-2.3c-1.5-4.3-1.9-12.8-2.2-15.2
	c-0.6-5.5-1.1-30.1,3-45l17-59.6c2-7,2.9-14.2,2.6-21.5c-1.4-41.2-10.6-81.7-27-119.6L4.9,11.4C2.6,6,6.6,0,12.4,0h855.1
	c5.9,0,9.8,6.1,7.5,11.5L859.2,47c-23,51.9-28.5,109.9-15.8,165.2l1.3,5.8c0.1,0.6,0.2,1.3,0.2,1.9c-0.2,33.8-13,63.6-13,108
	c0,68.5,8,139.8,8,190c0,33.2-16.1,54.8-16.1,61c0,13.7-21,8-38-14.2c-17-22.1,14.5-92.7,17-113.1c2.5-20.4-5.1-62.9-84.2-114.8
	c-79.1-51.9-194.8-6-256.1,24.7c-61.3,30.6-113.3-11.9-196.7-37.4c-83.4-25.5-114,15.3-125.1,37.4c-11.1,22.1-10.9,81.6-34.7,90.1
	C82.4,460.3,73,483.2,79,516.4C84.9,549.6,85.9,573.8,85.9,591.7L85.9,591.7z"/>
</svg>
