<?xml version="1.0" encoding="utf-8"?>
<!-- Generator: Adobe Illustrator 24.1.2, SVG Export Plug-In . SVG Version: 6.00 Build 0)  -->
<svg version="1.1" id="Шар_1" xmlns="http://www.w3.org/2000/svg" xmlns:xlink="http://www.w3.org/1999/xlink" x="0px" y="0px"
	 viewBox="0 0 1278 622" style="enable-background:new 0 0 1278 622;" xml:space="preserve">
<style type="text/css">
	.st0{fill:#FEF3E4;}
</style>
<path class="st0" d="M1278,0c0,0-0.3,0.5-1,27.1c-0.2,9.4-1.5,13.1-3,13.9c-6.6,3.6-11.4,9.7-11.6,17.2
	c-1.6,49.2-0.7,176.6-0.7,376.8c0,261.7-18,23-18.8,9.4c0-0.4-1-23.9-1-24.3c0-12.7-0.3-157.4-1-218.9
	c-0.8-63.4-15.4-113.7-24.8,38.9c-7.2,117.1-19,72.6-28.8,46.1c-3.2-8.7-12.1-13.9-21.2-12.5c-47.4,7.3-26.6,63-37.9,160.2
	c-23,198.3-56.1-17.5-56.1-17.5c-32-60.4-47.1,28-49,40.8c-0.2,1-0.2,2-0.2,2.9V579c0,13.7-21,8-38-14.2
	c-17-22.1,14.5-92.7,17-113.1c2.5-20.4-5.1-62.9-84.2-114.8c-79.1-51.9-194.8-6-256,24.7c-61.3,30.6-113.3-11.9-196.7-37.4
	c-83.4-25.5-114,15.3-125.1,37.4c-11.1,22.1-10.9,81.6-34.7,90.1c-23.8,8.5-33.2,31.5-27.2,64.6c6,33.2,7,57.4,7,75.3h0
	c0,13.8-19,30.9-30.9,30.3c0,0-31,12.4-27.5-184.8c0,0,0.1-191.1-49.9-92.6c-0.4,0.8-0.8,1.7-1.1,2.5c-3.3,9.8-23.2,70.7-13.1,100.4
	c11,32.3-50.6,27.1-40.2-1s31.3-218.1,3.1-224.3c-26-5.8-23.6,74.8-23,87.3c0,1.1,0,2.3-0.2,3.4c-1.2,9-7,46.8-14.4,16.2
	c-8.3-34.4,6.3-170.1-4.7-180.5s-33.4-5.7-31.8,16.7c1.4,20.4,0.2,198.6,0,230.4c0,3.4-1,6.8-2.7,9.8c-6.5,11.1-22.8,33-22.8-22.7
	c0-69.8,7.3-326.5-4.2-333.3S0,0,0,0"/>
<path class="st0" d="M254,0h768.9"/>
</svg>
