<?xml version="1.0" encoding="utf-8"?>
<!-- Generator: Adobe Illustrator 24.1.2, SVG Export Plug-In . SVG Version: 6.00 Build 0)  -->
<svg version="1.1" id="Шар_1" xmlns="http://www.w3.org/2000/svg" xmlns:xlink="http://www.w3.org/1999/xlink" x="0px" y="0px"
	 viewBox="0 0 1277.9 1260" style="enable-background:new 0 0 1277.9 1260;" xml:space="preserve">
<style type="text/css">
	.st0{fill:#FEF3E4;}
</style>
<path class="st0" d="M1073,954.8c16.6,74.8,40.1,225.4,40.1,225.4c5.2,71.5,38.1,5.7,28.2,1.6c-9.9-4.2-0.3-366.8-0.3-366.8
	c-6.7-214.1,37.8-141.3,86.9-367.8c42.1-194.6-158.9-222.2-195-227.3c-4.8-0.7-9.5,1.7-11.8,6c-2.3,4.4-6.9,7.3-15,2.4
	c-35.6-18.2-21.6-73.3-9.8-99.4c0.3-0.6,0.5-1.2,0.7-1.9c6.3-25.2,7.9-82-35.1-115.5c-51.2-40-201.9,37.4-289.3,37.4
	c-95.5,0-141.8-22.1-198.8-42.5c-57-20.4-102.1,14.5-119.9,42.5c-17.8,27.9-18.7,39-45.5,51.7c-0.3,0.1-0.6,0.3-0.9,0.4
	c-52.9,19.7-25,69.7-14.8,127.4h0c7.7,43.5-19.2,42.8-36.1,36.2c-1.8-0.7-3.4-1.9-4.7-3.4c-10-12.1-64.4-70.4-132.1-11.1
	c-75.1,65.7-93.9,148.7-61,189.4s9.6,300.5-15.5,335c-25.2,34.4,59.4,68.9,53.1,0c-5.9-64.9-10.4-300.6-10.9-327.7
	c0-1.8,0.3-3.5,1.1-5.1c4-8.6,18-34.7,28.6-6.9c12.5,32.9-26.6,327.1,48.5,461.7s-37.6,185-37.6,185S57,1114,77.4,1175
	s103.3,62.6,106.4,17.2c3.1-45.4,36-72,57.9-47c21.4,24.4-21.4,91.2,9.2,110.8c1.3,0.8,2.3,2,3.3,3.2c7.3,9.2,44.9-81.4,38.3-101.8
	c-6.8-21.3-20.4-99,9.4-107.5c29.8-8.5,34-28.1,49.3-52.7c15.3-24.7,54.4-73.1,149.6-35.7C596.1,999,659,965,704.1,931
	c89.3-67.4,240.7,0.3,282.8,58.1c22.1,30.3-38.2,180.1,0,194.5c19,7.2,40.3,138.9,36.1-5.7c-1.7-58.2,17.1-164.3,28.5-222.8
	C1053.8,943.4,1070.4,943.2,1073,954.8z"/>
<path class="st0" d="M1169.3,855.5c0.9-9.7,6.8-18.2,15.7-22.2c9.4-4.2,22.7-4.9,37,10.4c21,22.4,8.3,44.1,1.2,53
	c-2.7,3.4-4.5,7.4-5.3,11.7c-3.4,18.2-10.7,64.8-0.1,86.1c13.4,26.7-28.3,58.2-22.9,0c5.4-58.2,0.3-90.4-6-94.2
	C1183.2,897,1166.1,888.9,1169.3,855.5z"/>
<path class="st0" d="M1208.7,124.6c-4.6-16.3-16.1-29.9-31.5-36.7c-21.3-9.5-53.9-13.9-81.1,25.1c-30.3,43.4,4.4,70.7,29.8,83.8
	c15.4,7.9,33.5,8.6,49.4,1.8C1196.8,189.1,1221.3,168.7,1208.7,124.6z"/>
<path class="st0" d="M171.1,984.5c-1.3-4.6-4.5-8.4-8.8-10.3c-6-2.6-15.1-3.9-22.7,7c-8.5,12.1,1.2,19.8,8.3,23.4
	c4.3,2.2,9.4,2.4,13.8,0.5C167.8,1002.5,174.6,996.8,171.1,984.5z"/>
</svg>
